<svg version="1.1" xmlns="http://www.w3.org/2000/svg" style="display: block;" viewBox="0 0 2048 2048" width="1024" height="1024" preserveAspectRatio="none">
<defs>
	<linearGradient id="Gradient1" gradientUnits="userSpaceOnUse" x1="1127.31" y1="950.793" x2="1084.4" y2="916.02">
		<stop class="stop0" offset="0" stop-opacity="1" stop-color="rgb(234,152,10)"/>
		<stop class="stop1" offset="1" stop-opacity="1" stop-color="rgb(248,191,44)"/>
	</linearGradient>
	<linearGradient id="Gradient2" gradientUnits="userSpaceOnUse" x1="940.243" y1="1049.78" x2="908.45" y2="1024.16">
		<stop class="stop0" offset="0" stop-opacity="1" stop-color="rgb(253,229,96)"/>
		<stop class="stop1" offset="1" stop-opacity="1" stop-color="rgb(248,242,158)"/>
	</linearGradient>
	<linearGradient id="Gradient3" gradientUnits="userSpaceOnUse" x1="1259.66" y1="1207.81" x2="768.324" y2="765.774">
		<stop class="stop0" offset="0" stop-opacity="1" stop-color="rgb(254,192,29)"/>
		<stop class="stop1" offset="1" stop-opacity="1" stop-color="rgb(255,225,81)"/>
	</linearGradient>
	<linearGradient id="Gradient4" gradientUnits="userSpaceOnUse" x1="1306.69" y1="1218.89" x2="724.201" y2="767.129">
		<stop class="stop0" offset="0" stop-opacity="1" stop-color="rgb(156,77,5)"/>
		<stop class="stop1" offset="1" stop-opacity="1" stop-color="rgb(189,111,12)"/>
	</linearGradient>
	<linearGradient id="Gradient5" gradientUnits="userSpaceOnUse" x1="1352.52" y1="1308.46" x2="716.512" y2="698.382">
		<stop class="stop0" offset="0" stop-opacity="1" stop-color="rgb(245,172,19)"/>
		<stop class="stop1" offset="1" stop-opacity="1" stop-color="rgb(255,209,58)"/>
	</linearGradient>
	<linearGradient id="Gradient6" gradientUnits="userSpaceOnUse" x1="645.184" y1="665.914" x2="1390.56" y2="1300.91">
		<stop class="stop0" offset="0" stop-opacity="1" stop-color="rgb(156,78,5)"/>
		<stop class="stop1" offset="1" stop-opacity="1" stop-color="rgb(208,125,15)"/>
	</linearGradient>
	<linearGradient id="Gradient7" gradientUnits="userSpaceOnUse" x1="745.35" y1="723.913" x2="550.131" y2="550.589">
		<stop class="stop0" offset="0" stop-opacity="1" stop-color="rgb(254,232,107)"/>
		<stop class="stop1" offset="1" stop-opacity="1" stop-color="rgb(252,249,188)"/>
	</linearGradient>
	<linearGradient id="Gradient8" gradientUnits="userSpaceOnUse" x1="1513.58" y1="1454.72" x2="611.782" y2="608.432">
		<stop class="stop0" offset="0" stop-opacity="1" stop-color="rgb(154,74,3)"/>
		<stop class="stop1" offset="1" stop-opacity="1" stop-color="rgb(223,149,25)"/>
	</linearGradient>
	<linearGradient id="Gradient9" gradientUnits="userSpaceOnUse" x1="1480.84" y1="1429.85" x2="575.377" y2="559.287">
		<stop class="stop0" offset="0" stop-opacity="1" stop-color="rgb(247,177,23)"/>
		<stop class="stop1" offset="1" stop-opacity="1" stop-color="rgb(254,225,85)"/>
	</linearGradient>
</defs>
<path transform="translate(0,0)" fill="url(#Gradient9)" d="M 858.795 343.423 C 1038.37 302.388 1226.25 326.707 1383.43 425.335 C 1532.24 516.873 1638.04 664.362 1677.05 834.665 C 1718.64 1015.28 1686.44 1205.02 1587.6 1361.8 C 1467.58 1552.13 1262.85 1671.12 1037.5 1677 C 909.92 1679.47 784.397 1644.63 676.34 1576.76 C 469.87 1446.26 344.86 1215.41 353.852 971.88 C 354.62 951.078 354.264 932.046 357.458 911.285 C 394.137 628.933 582.201 413.992 858.795 343.423 z"/>
<path transform="translate(0,0)" fill="url(#Gradient8)" d="M 858.795 343.423 C 1038.37 302.388 1226.25 326.707 1383.43 425.335 C 1532.24 516.873 1638.04 664.362 1677.05 834.665 C 1718.64 1015.28 1686.44 1205.02 1587.6 1361.8 C 1467.58 1552.13 1262.85 1671.12 1037.5 1677 C 909.92 1679.47 784.397 1644.63 676.34 1576.76 C 469.87 1446.26 344.86 1215.41 353.852 971.88 C 354.62 951.078 354.264 932.046 357.458 911.285 L 358.603 914.841 C 367.422 917.172 378.291 900.881 380.879 893.792 C 382.456 892.776 382.935 892.478 384.64 891.6 L 385.313 893.294 C 382.812 898.863 381.242 907.377 383.126 913.288 C 375.04 1005.65 380.811 1087.6 407.596 1176.9 C 410.829 1187.68 419.508 1214.3 424.393 1224.25 C 430.89 1243.94 448.387 1278.48 458.131 1296.42 C 541.714 1450.69 683.567 1565.1 852.047 1614.12 C 1001.49 1658.09 1175.87 1638.66 1312.53 1564.09 C 1466.38 1480.23 1580.71 1338.81 1630.49 1170.82 C 1678.06 1008.03 1658.53 818.862 1576.87 669.987 C 1518.32 562.204 1428.77 474.466 1319.82 418.118 C 1288.37 401.794 1260.04 389.426 1226.16 379.527 C 1211.5 373.289 1184.22 366.681 1168.88 363.312 C 1084.71 344.644 997.752 342.249 912.685 356.258 L 912.016 355.654 C 903.539 355.977 878.323 360.321 869.205 363.268 C 867.975 363.665 868.659 364.061 864.958 364.859 C 865.393 360.067 871.132 360.399 871.379 353.191 C 870.28 350.222 870.538 350.1 868.048 348.285 C 861.187 348.589 861.597 349.042 858.795 343.423 z"/>
<path transform="translate(0,0)" fill="url(#Gradient7)" d="M 357.458 911.285 C 394.137 628.933 582.201 413.992 858.795 343.423 C 861.597 349.042 861.187 348.589 868.048 348.285 C 870.538 350.1 870.28 350.222 871.379 353.191 C 871.132 360.399 865.393 360.067 864.958 364.859 C 868.659 364.061 867.975 363.665 869.205 363.268 C 878.323 360.321 903.539 355.977 912.016 355.654 L 912.685 356.258 C 997.752 342.249 1084.71 344.644 1168.88 363.312 C 1184.22 366.681 1211.5 373.289 1226.16 379.527 L 1224.5 380.18 C 1214.25 377.356 1201.32 372.546 1191.93 370.35 C 1157.65 362.326 1108.86 350.957 1073.46 351.081 C 1074.75 351.785 1073.98 351.462 1075.83 351.884 C 1074.87 361.279 1061.35 359.434 1056.52 364.067 L 1056.46 364.77 L 1062.73 362.87 C 1064.98 365.561 1064.34 365.936 1068.07 366.137 C 1105.5 368.159 1152.98 374.348 1188.1 386.564 L 1188.24 387.505 C 1186.05 387.69 1170.47 382.838 1166.66 381.937 C 916.737 322.879 669.897 419.54 518.712 625.335 C 431.919 744.288 390.845 890.508 403.002 1037.26 C 407.259 1085.51 416.114 1130.83 430.789 1176.91 C 434.092 1187.29 438.291 1197.92 441.276 1208.28 L 440.235 1208.29 L 439.981 1207.41 C 439.245 1204.93 438.285 1203.19 437.553 1201.06 C 420.873 1152.48 405.877 1097.59 402.764 1046.26 C 398.159 1055.33 405.656 1074.69 400.373 1082 L 398.917 1082.02 C 395.18 1076.97 400.557 1076.78 394.642 1075.11 C 391.056 1074.1 389.82 1071.55 386.467 1070.83 C 392.046 1115.56 402.973 1160.45 418.049 1202.85 C 420.464 1209.64 423.1 1216.46 425.119 1223.37 L 424.393 1224.25 C 419.508 1214.3 410.829 1187.68 407.596 1176.9 C 380.811 1087.6 375.04 1005.65 383.126 913.288 C 381.242 907.377 382.812 898.863 385.313 893.294 L 384.64 891.6 C 382.935 892.478 382.456 892.776 380.879 893.792 C 378.291 900.881 367.422 917.172 358.603 914.841 L 357.458 911.285 z"/>
<path transform="translate(0,0)" fill="rgb(245,184,51)" d="M 357.458 911.285 C 394.137 628.933 582.201 413.992 858.795 343.423 C 861.597 349.042 861.187 348.589 868.048 348.285 C 870.538 350.1 870.28 350.222 871.379 353.191 C 871.132 360.399 865.393 360.067 864.958 364.859 C 868.659 364.061 867.975 363.665 869.205 363.268 C 878.323 360.321 903.539 355.977 912.016 355.654 L 912.685 356.258 C 912.364 356.387 912.043 356.516 911.722 356.645 C 874.664 363.227 839.806 372.131 804.223 384.854 C 651.184 438.309 524.321 548.165 449.538 691.991 C 410.447 767.498 396.245 831.018 383.126 913.288 C 381.242 907.377 382.812 898.863 385.313 893.294 L 384.64 891.6 C 382.935 892.478 382.456 892.776 380.879 893.792 C 378.291 900.881 367.422 917.172 358.603 914.841 L 357.458 911.285 z"/>
<path transform="translate(0,0)" fill="url(#Gradient6)" d="M 1028.44 1486.17 C 1024.94 1485.65 1017.59 1485.76 1013.85 1485.79 C 960.211 1486.29 910.189 1477.69 859.234 1460.8 C 737.443 1419.16 637.111 1330.96 580.205 1215.52 C 518.88 1094.5 508.932 953.873 552.61 825.43 C 592.282 707.172 688.337 596.162 800.046 540.809 C 919.584 480.867 1057.99 470.67 1185.02 512.446 C 1294.22 549 1386.02 624.673 1442.75 724.884 C 1450.15 737.801 1457.28 752.314 1463.66 765.804 C 1468.43 775.879 1472.24 787.305 1477.22 797.312 L 1477.64 798.142 L 1479.16 798.015 C 1481.15 801.217 1491.63 838.559 1493.09 844.345 C 1509.56 909.4 1513.75 976.957 1505.43 1043.55 C 1503.61 1058.87 1499.01 1074.27 1497.24 1089.04 C 1496 1099.46 1487.25 1114.59 1490.22 1121.8 C 1493.3 1123.87 1497.73 1126.15 1497.72 1129.77 C 1497.72 1129.69 1502.73 1130.64 1502.1 1133.11 C 1502.07 1133.43 1502.04 1133.76 1502.01 1134.08 C 1502.31 1135.14 1502.6 1136.19 1502.9 1137.24 C 1506.54 1133.26 1519.81 1070.71 1521.45 1060.01 C 1526.1 1029.71 1527.55 995.893 1527.86 965.153 C 1527.96 932.509 1521.53 900.893 1517.12 868.903 C 1516.07 861.33 1509.89 849.354 1511.49 843.015 C 1515.82 846.827 1527.13 927.886 1527.82 938.636 C 1537.59 1076.06 1494.5 1212.04 1407.36 1318.75 C 1348.45 1390.37 1270.89 1448.53 1182.6 1479.21 C 1180.68 1479.87 1157.7 1487.11 1157.35 1487.09 C 1159.93 1485.08 1195.98 1472.81 1201.71 1470.56 C 1213.29 1465.98 1224.67 1460.92 1235.81 1455.38 C 1313.99 1416.59 1379.93 1356.39 1430.3 1286.13 C 1435.7 1278.61 1440.39 1270.19 1445.89 1262.55 L 1445.47 1261.29 C 1442.98 1261.35 1440.13 1261.41 1436.9 1261.48 C 1431.76 1256.14 1432.39 1259.55 1426.63 1263.89 C 1425.36 1264.84 1425.05 1266.31 1425.48 1268.38 L 1427.32 1270.56 C 1425.97 1275.6 1418.12 1287.54 1413.61 1290.22 L 1412.33 1289.44 C 1410.79 1281.83 1410.37 1287.72 1409.47 1282.46 L 1384.41 1314.72 C 1385.61 1315.97 1386.07 1316.39 1387.34 1317.49 C 1383.76 1323.37 1376.02 1323.32 1372.26 1327.59 C 1311.37 1396.72 1226.78 1448.28 1137.85 1472.18 C 1118.1 1477.49 1046.06 1490.69 1028.44 1486.17 z"/>
<path transform="translate(0,0)" fill="rgb(250,233,121)" d="M 1477.64 798.142 L 1479.16 798.015 C 1481.15 801.217 1491.63 838.559 1493.09 844.345 C 1509.56 909.4 1513.75 976.957 1505.43 1043.55 C 1503.61 1058.87 1499.01 1074.27 1497.24 1089.04 C 1496 1099.46 1487.25 1114.59 1490.22 1121.8 C 1493.3 1123.87 1497.73 1126.15 1497.72 1129.77 C 1497.72 1129.69 1502.73 1130.64 1502.1 1133.11 C 1502.07 1133.43 1502.04 1133.76 1502.01 1134.08 C 1502.31 1135.14 1502.6 1136.19 1502.9 1137.24 C 1506.54 1133.26 1519.81 1070.71 1521.45 1060.01 C 1526.1 1029.71 1527.55 995.893 1527.86 965.153 C 1527.96 932.509 1521.53 900.893 1517.12 868.903 C 1516.07 861.33 1509.89 849.354 1511.49 843.015 C 1515.82 846.827 1527.13 927.886 1527.82 938.636 C 1537.59 1076.06 1494.5 1212.04 1407.36 1318.75 C 1348.45 1390.37 1270.89 1448.53 1182.6 1479.21 C 1180.68 1479.87 1157.7 1487.11 1157.35 1487.09 C 1159.93 1485.08 1195.98 1472.81 1201.71 1470.56 C 1213.29 1465.98 1224.67 1460.92 1235.81 1455.38 C 1313.99 1416.59 1379.93 1356.39 1430.3 1286.13 C 1435.7 1278.61 1440.39 1270.19 1445.89 1262.55 L 1445.47 1261.29 C 1442.98 1261.35 1440.13 1261.41 1436.9 1261.48 C 1431.76 1256.14 1432.39 1259.55 1426.63 1263.89 C 1425.36 1264.84 1425.05 1266.31 1425.48 1268.38 L 1427.32 1270.56 C 1425.97 1275.6 1418.12 1287.54 1413.61 1290.22 L 1412.33 1289.44 C 1410.79 1281.83 1410.37 1287.72 1409.47 1282.46 L 1384.41 1314.72 C 1385.61 1315.97 1386.07 1316.39 1387.34 1317.49 C 1383.76 1323.37 1376.02 1323.32 1372.26 1327.59 C 1311.37 1396.72 1226.78 1448.28 1137.85 1472.18 C 1118.1 1477.49 1046.06 1490.69 1028.44 1486.17 C 1065.75 1486.75 1127.21 1474.95 1162.49 1463.25 C 1288.97 1420.16 1393.19 1328.65 1452.27 1208.8 C 1518.48 1076.39 1524.32 937.6 1477.64 798.142 z"/>
<path transform="translate(0,0)" fill="url(#Gradient5)" d="M 639.122 1249.9 C 625.243 1240.3 604.246 1192.73 596.994 1176.11 C 490.878 933.015 610.057 658.578 851.958 557.031 C 963.836 509.834 1089.83 508.723 1202.52 553.941 C 1259.3 576.731 1310.69 611.15 1353.37 654.986 C 1362.12 663.999 1374.17 676.221 1378.95 687.686 C 1459.3 776.96 1486.99 893.842 1480.76 1011.54 C 1473.35 1138.48 1416.17 1257.38 1321.64 1342.43 C 1231.18 1423.74 1111.82 1465.24 990.43 1457.58 C 871.432 1450.83 760.038 1396.9 680.925 1307.75 C 668.735 1294.05 646.033 1265.94 639.122 1249.9 z"/>
<path transform="translate(0,0)" fill="rgb(217,134,13)" d="M 639.122 1249.9 C 625.243 1240.3 604.246 1192.73 596.994 1176.11 C 490.878 933.015 610.057 658.578 851.958 557.031 C 963.836 509.834 1089.83 508.723 1202.52 553.941 C 1259.3 576.731 1310.69 611.15 1353.37 654.986 C 1362.12 663.999 1374.17 676.221 1378.95 687.686 C 1369.17 681.024 1361.69 671.336 1352.83 663.524 C 1264.89 585.95 1159.27 549.683 1042.52 552.019 C 697.707 558.917 483.978 929.528 632.35 1235.19 C 634.265 1239.13 637.849 1245.88 639.122 1249.9 z"/>
<path transform="translate(0,0)" fill="url(#Gradient4)" d="M 768.009 870.376 C 755.591 861.807 744.048 852.024 747.218 835.333 C 750.153 819.879 755.526 805.239 759.299 790.016 C 764.546 768.447 769.923 746.911 775.43 725.407 C 778.109 714.735 780.41 702.842 784.09 692.516 C 788.897 679.029 797.424 669.336 812.552 669.037 C 846.531 668.367 880.582 668.735 914.601 668.687 L 1116.02 668.72 L 1215.76 668.782 C 1232.94 668.747 1252.47 668.063 1269.54 669.815 C 1280.96 670.987 1288.46 682.114 1295.02 690.959 C 1309.36 704.83 1334.26 725.014 1333.31 745.818 C 1332.57 762.201 1330.31 778.962 1328.47 795.298 C 1326.85 812.691 1326.54 816.985 1317 831.463 C 1294.45 865.66 1269.23 896.855 1243.42 928.612 C 1221.56 955.828 1199.93 983.225 1178.52 1010.8 L 1107.76 1101.63 C 1100.5 1110.93 1085.02 1132.22 1077.77 1139.98 C 1081.7 1140.17 1088.51 1140.31 1092.17 1140.9 C 1118.03 1140.93 1157.33 1142.56 1182.53 1138.35 C 1188.36 1136.66 1201.21 1127.88 1203.66 1123.15 C 1222.71 1086.57 1226.34 1079.33 1270.24 1083.37 C 1284.35 1084.67 1290.79 1093.89 1299.14 1104.93 C 1336.45 1144.57 1336.87 1138.81 1322.92 1192.51 L 1307.3 1252.1 C 1302.81 1269.07 1298.15 1286.04 1293.82 1303.09 C 1290.28 1317.03 1285.16 1330.38 1274.24 1340.37 C 1268.36 1345.73 1257.44 1351.79 1249.34 1352.78 C 1226.57 1353.84 1202.94 1353.44 1180.17 1353.28 L 1072.59 1353.32 C 1013.66 1353.85 954.72 1353.99 895.784 1353.76 C 864.576 1353.74 833.012 1354.24 801.859 1352.91 C 787.47 1352.3 762.615 1326.82 754.861 1315.44 C 746.62 1309.08 727.183 1294.56 727.686 1283.46 C 728.734 1260.32 739.349 1211.11 746.077 1189.36 C 748.575 1181.29 774.456 1149.89 780.356 1142.59 L 831.565 1079.57 L 991.774 879.245 C 986.767 876.895 905.441 878.554 894.365 879.855 C 882.405 881.26 869.947 884.479 858.728 887.826 C 846.5 891.475 823.63 912.036 814.779 911.588 C 801.712 910.927 775.316 879.787 768.009 870.376 z"/>
<path transform="translate(0,0)" fill="rgb(217,134,13)" d="M 1299.14 1104.93 C 1336.45 1144.57 1336.87 1138.81 1322.92 1192.51 L 1307.3 1252.1 C 1302.81 1269.07 1298.15 1286.04 1293.82 1303.09 C 1290.28 1317.03 1285.16 1330.38 1274.24 1340.37 C 1268.36 1345.73 1257.44 1351.79 1249.34 1352.78 C 1226.57 1353.84 1202.94 1353.44 1180.17 1353.28 L 1072.59 1353.32 C 1013.66 1353.85 954.72 1353.99 895.784 1353.76 C 864.576 1353.74 833.012 1354.24 801.859 1352.91 C 787.47 1352.3 762.615 1326.82 754.861 1315.44 C 771.057 1319.9 810.484 1318.05 828.955 1318.03 L 949.605 1317.98 L 1127.6 1317.94 C 1157.66 1317.94 1188.34 1318.16 1218.42 1317.58 C 1224.83 1317.45 1231.28 1315.11 1236.42 1311.18 C 1242.19 1306.72 1246.7 1300.84 1249.5 1294.1 C 1252.76 1286.17 1260.35 1254.68 1263.32 1243.97 C 1271.25 1215.48 1278.93 1186.93 1286.36 1158.31 C 1290.46 1142.89 1297.31 1119.96 1299.14 1104.93 z"/>
<path transform="translate(0,0)" fill="rgb(217,134,13)" d="M 1295.02 690.959 C 1309.36 704.83 1334.26 725.014 1333.31 745.818 C 1332.57 762.201 1330.31 778.962 1328.47 795.298 C 1326.85 812.691 1326.54 816.985 1317 831.463 C 1294.45 865.66 1269.23 896.855 1243.42 928.612 C 1221.56 955.828 1199.93 983.225 1178.52 1010.8 L 1107.76 1101.63 C 1100.5 1110.93 1085.02 1132.22 1077.77 1139.98 C 1081.7 1140.17 1088.51 1140.31 1092.17 1140.9 C 1072.75 1142.35 1031.79 1140.79 1010.97 1140.38 C 1032.11 1116.06 1060.19 1078.22 1080.33 1052.1 L 1168.08 940.003 L 1234.29 855.731 C 1246.67 840.032 1272.05 809.282 1280.12 791.99 C 1283.12 785.398 1285.32 778.468 1286.66 771.351 C 1288.6 761.435 1289.76 745.185 1290.79 734.721 C 1292.1 721.432 1294.84 703.93 1295.02 690.959 z"/>
<path transform="translate(0,0)" fill="rgb(217,134,13)" d="M 768.009 870.376 C 807.618 882.604 813.659 860.508 848.402 850.063 C 882.11 839.93 919.578 843.86 954.416 843.089 C 973.754 842.846 1000.25 842.551 1019.3 843.505 C 1010.45 855.886 1001.18 867.298 991.774 879.245 C 986.767 876.895 905.441 878.554 894.365 879.855 C 882.405 881.26 869.947 884.479 858.728 887.826 C 846.5 891.475 823.63 912.036 814.779 911.588 C 801.712 910.927 775.316 879.787 768.009 870.376 z"/>
<path transform="translate(0,0)" fill="url(#Gradient3)" d="M 771.203 840.824 C 770.167 839.432 768.934 838.353 769.32 836.374 C 776.152 801.332 787.231 766.663 795.057 731.758 C 797.432 721.165 802.595 696.151 809.449 689.289 C 822.768 685.824 885.02 687.101 901.623 687.107 L 1082.97 687.175 L 1204.62 687.188 C 1220.65 687.192 1254.76 686.341 1269.18 688.372 C 1269.6 705.574 1263.89 765.671 1255.93 779.95 C 1242.53 803.995 1213.84 837.838 1195.94 860.496 L 1103.58 978.406 C 1073.51 1017.16 1043.22 1055.75 1012.71 1094.16 C 999.129 1111.56 976.19 1142.85 961.968 1157.99 C 959.978 1160.12 957.878 1162.13 955.676 1164.03 L 1096.33 1163.98 C 1120.74 1163.99 1145.45 1164.91 1169.8 1163.56 C 1208.9 1161.39 1221.34 1138.87 1236.6 1108.01 C 1243.91 1105.64 1264.77 1103.55 1270.85 1108.11 C 1260.79 1143.96 1250.92 1179.86 1241.27 1215.82 C 1237.54 1229.44 1226.49 1276.15 1219.92 1285.87 C 1208.43 1288.98 1171.22 1287.94 1157.25 1287.94 L 1057.91 1287.89 L 874.792 1287.85 C 838.476 1287.85 797.098 1288.74 761.231 1286.8 L 751.424 1279.92 C 747.87 1272.8 764.321 1209.29 768.204 1197.86 C 769.382 1194.4 790.16 1169.27 794.766 1163.63 C 811.882 1142.89 828.877 1122.05 845.749 1101.1 C 923.895 1004.01 1002.62 907.377 1081.93 811.224 C 1070.95 804.889 947.406 811.007 924.119 808.878 C 905.507 807.176 864.403 810.684 844.629 813.325 C 822.074 816.337 806.908 832.767 788.841 842.638 C 782.431 842.187 777.575 841.814 771.203 840.824 z"/>
<path transform="translate(0,0)" fill="rgb(217,134,13)" d="M 1270.85 1108.11 C 1260.79 1143.96 1250.92 1179.86 1241.27 1215.82 C 1237.54 1229.44 1226.49 1276.15 1219.92 1285.87 C 1208.43 1288.98 1171.22 1287.94 1157.25 1287.94 L 1057.91 1287.89 L 874.792 1287.85 C 838.476 1287.85 797.098 1288.74 761.231 1286.8 L 751.424 1279.92 C 757.15 1277.44 764.072 1271.87 768.861 1267.88 C 772.969 1270.61 775.754 1270.72 780.763 1270.8 C 809.637 1271.23 838.721 1271.04 867.607 1271.02 L 1028.87 1270.96 L 1145.83 1270.97 C 1163.37 1270.98 1189.66 1272 1206.47 1270.74 C 1217.12 1259.41 1221.13 1236.41 1225.27 1221.1 L 1243.86 1152.35 C 1246.34 1143.14 1248.6 1131.38 1252.75 1122.97 C 1255.89 1116.6 1266.69 1114.72 1270.85 1108.11 z"/>
<path transform="translate(0,0)" fill="rgb(250,233,121)" d="M 771.203 840.824 C 770.167 839.432 768.934 838.353 769.32 836.374 C 776.152 801.332 787.231 766.663 795.057 731.758 C 797.432 721.165 802.595 696.151 809.449 689.289 C 822.768 685.824 885.02 687.101 901.623 687.107 L 1082.97 687.175 L 1204.62 687.188 C 1220.65 687.192 1254.76 686.341 1269.18 688.372 C 1265.04 694.125 1264.02 695.632 1258.01 699.787 C 1248.65 700.826 1233.56 699.844 1223.26 699.839 C 1199.46 699.782 1175.65 699.925 1151.84 700.269 C 1043.35 701.8 932.977 700.955 824.361 701.08 C 820.769 707.246 790.822 816.433 791.211 820.787 C 783.644 827.267 779.498 834.412 771.203 840.824 z"/>
<path transform="translate(0,0)" fill="url(#Gradient2)" d="M 1097.27 796.472 C 1100.15 798.606 1100.96 798.967 1102.89 802.083 C 1102.98 808.415 1034.13 890.014 1024.76 901.703 L 832.596 1139.73 C 822.458 1152.09 812.232 1164.37 801.921 1176.58 C 797.89 1181.32 783.558 1197.47 781.372 1202.2 C 775.631 1214.62 769.029 1255.72 768.861 1267.88 C 764.072 1271.87 757.15 1277.44 751.424 1279.92 C 747.87 1272.8 764.321 1209.29 768.204 1197.86 C 769.382 1194.4 790.16 1169.27 794.766 1163.63 C 811.882 1142.89 828.877 1122.05 845.749 1101.1 C 923.895 1004.01 1002.62 907.377 1081.93 811.224 C 1087.51 805.321 1091.09 801.678 1097.27 796.472 z"/>
<path transform="translate(0,0)" fill="url(#Gradient1)" d="M 1269.18 688.372 C 1269.6 705.574 1263.89 765.671 1255.93 779.95 C 1242.53 803.995 1213.84 837.838 1195.94 860.496 L 1103.58 978.406 C 1073.51 1017.16 1043.22 1055.75 1012.71 1094.16 C 999.129 1111.56 976.19 1142.85 961.968 1157.99 C 959.978 1160.12 957.878 1162.13 955.676 1164.03 C 950.821 1165.8 944.474 1167.92 939.857 1169.91 L 938.89 1166.98 C 939.334 1164.68 939.817 1162.51 941.416 1160.67 C 954.994 1145.04 967.81 1129.5 980.483 1113.11 L 1162.43 880.721 C 1190.65 844.464 1224.17 808.277 1245.94 767.746 C 1253.48 753.709 1251.55 708.784 1258.01 699.787 C 1264.02 695.632 1265.04 694.125 1269.18 688.372 z"/>
<path transform="translate(0,0)" fill="rgb(245,184,51)" d="M 791.211 820.787 C 800.683 813.196 807.57 807.994 818.915 803.058 C 829.448 798.476 840.601 795.477 852.011 794.158 C 864.177 792.846 877.506 792.231 889.753 792.312 C 952.444 792.725 1015.32 790.704 1077.97 792.944 C 1084.13 793.164 1091.56 794.185 1097.27 796.472 C 1091.09 801.678 1087.51 805.321 1081.93 811.224 C 1070.95 804.889 947.406 811.007 924.119 808.878 C 905.507 807.176 864.403 810.684 844.629 813.325 C 822.074 816.337 806.908 832.767 788.841 842.638 C 782.431 842.187 777.575 841.814 771.203 840.824 C 779.498 834.412 783.644 827.267 791.211 820.787 z"/>
<path transform="translate(0,0)" fill="rgb(250,233,121)" d="M 1236.6 1108.01 C 1238.74 1113.33 1245.09 1116.15 1243.83 1122.18 C 1240.86 1136.31 1229.08 1149.88 1218.14 1158.8 C 1190.35 1181.44 1160.72 1177.75 1127.08 1177.98 C 1090.94 1178.29 1054.79 1178.31 1018.64 1178.06 C 1002.06 1178.09 985.482 1178.22 968.902 1178.44 C 962.762 1178.5 943.744 1179.8 939.729 1176.88 C 938.212 1174.1 937.691 1173.98 938.127 1170.99 L 939.857 1169.91 C 944.474 1167.92 950.821 1165.8 955.676 1164.03 L 1096.33 1163.98 C 1120.74 1163.99 1145.45 1164.91 1169.8 1163.56 C 1208.9 1161.39 1221.34 1138.87 1236.6 1108.01 z"/>
</svg>