<?xml version="1.0" encoding="utf-8"?>
<svg xmlns="http://www.w3.org/2000/svg" height="1024" viewBox="0 0 1024 1024" width="1024">
<path d="M473.5 80.09 c-13.14 1.23 -46.98 6.58 -59 9.33 -23.33 5.34 -51.31 14.28&#xA;-72.5 23.16 -6.32 2.65 -18.7 8.48 -27.5 12.95 -8.8 4.47 -20.73 10.97 -26.5&#xA;14.44 -5.77 3.47 -15.9 10.02 -22.5 14.55 -6.6 4.53 -17.07 12.27 -23.26 17.2&#xA;-20.22 16.1 -44.23 39.34 -61.22 59.27 -17.54 20.57 -39.87 54.35 -53.21&#xA;80.51 -3.65 7.15 -9.21 19.08 -12.36 26.5 -3.15 7.42 -7.9 19.68 -10.56 27.24&#xA;-2.66 7.55 -6.64 20.33 -8.85 28.38 -2.21 8.06 -5.35 21.23 -6.98 29.26 -5.7&#xA;28.12 -9.05 60.94 -9.04 88.62 .01 37.53 4.63 74.67 13.6 109.37 1.91 7.39&#xA;5.07 18.43 7.03 24.54 1.96 6.1 6.47 18.47 10.03 27.48 3.56 9.01 9.55 22.74&#xA;13.32 30.5 14.65 30.2 36.02 63.37 58.08 90.12 10.01 12.14 44.76 46.49 57.54&#xA;56.88 6.66 5.41 17.68 13.82 24.5 18.69 6.82 4.87 19.2 12.93 27.51 17.91&#xA;8.31 4.98 22.26 12.61 31 16.95 8.74 4.34 20.91 9.95 27.07 12.47 6.15 2.52&#xA;17.82 6.84 25.93 9.6 8.11 2.76 20.63 6.58 27.82 8.47 26.46 6.98 59.22 11.98&#xA;88.82 13.56 39.45 2.1 85.72 -2.53 126.1 -12.61 7.62 -1.9 19.54 -5.3 26.5&#xA;-7.55 6.96 -2.25 18.95 -6.56 26.65 -9.58 7.7 -3.02 21.2 -9.1 30 -13.5 8.8&#xA;-4.4 20.27 -10.5 25.5 -13.55 17.31 -10.12 44.89 -29.59 62.32 -44.02 5.05&#xA;-4.18 15.65 -13.93 23.56 -21.66 7.91 -7.73 18.51 -18.82 23.56 -24.64 15.92&#xA;-18.32 34.1 -43.29 45.84 -62.92 4.44 -7.42 12.45 -22.5 17.8 -33.5 5.35 -11&#xA;11.75 -25.17 14.21 -31.5 5.08 -13.03 13.49 -38.89 16.7 -51.33 15.45 -59.86&#xA;18.04 -124.2 7.47 -185.17 -1.34 -7.7 -4.03 -20.52 -5.98 -28.5 -1.96 -7.98&#xA;-5.38 -20.35 -7.61 -27.5 -2.23 -7.15 -6.92 -20.25 -10.42 -29.12 -3.5 -8.87&#xA;-9.07 -21.82 -12.36 -28.79 -3.29 -6.97 -9.4 -18.71 -13.57 -26.1 -4.17 -7.39&#xA;-12.18 -20.31 -17.8 -28.71 -5.62 -8.4 -13.58 -19.55 -17.68 -24.78 -14.54&#xA;-18.53 -40.06 -45.42 -58.03 -61.16 -13.47 -11.8 -44.64 -33.74 -64.36 -45.3&#xA;-5.42 -3.18 -17.57 -9.51 -27 -14.06 -9.43 -4.55 -23.63 -10.83 -31.55 -13.94&#xA;-7.92 -3.11 -21.87 -7.91 -31 -10.67 -23.74 -7.17 -52.23 -13.13 -78.59&#xA;-16.45 -15.12 -1.9 -73.5 -2.77 -89 -1.33z m52 173.19 c2.75 .37 8.6 1.19 13&#xA;1.83 4.4 .64 8.51 1.55 9.12 2.04 .62 .49 1.93 .58 2.91 .2 1.26 -.48 1.57&#xA;-.33 1.04 .52 -.54 .87 -.06 1.04 1.73 .59 1.62 -.41 2.7 -.25 3.14 .46 .37&#xA;.59 1.97 1.08 3.56 1.08 3.3 0 19.67 5.27 22.39 7.21 1.59 1.14 2.51 1.44&#xA;2.04 .68 -.67 -1.08 -.26 -1 1.86 .39 1.49 .98 2.71 1.53 2.71 1.24 0 -.51&#xA;16.3 7.84 19.29 9.89 2.09 1.43 4.17 2.6 4.63 2.6 .46 0 1.58 1.01 2.5 2.25&#xA;.92 1.24 1.34 1.6 .95 .81 -.4 -.79 1.38 .07 3.95 1.92 2.57 1.85 4.68 3.73&#xA;4.68 4.19 0 .46 .51 .83 1.13 .83 .62 0 2.25 1.24 3.62 2.75 1.37 1.51 2.12&#xA;2.08 1.67 1.25 -.98 -1.8 12.96 10.82 16.63 15.05 2.83 3.27 4.77 5.96 4.3&#xA;5.98 -.47 .02 -.06 .49 .9 1.05 1.13 .66 9.95 12.92 9.29 12.92 -.3 0 .36 .9&#xA;1.46 2 1.1 1.1 2 2.62 2 3.38 0 .76 .67 1.93 1.49 2.61 .82 .68 1.24 1.63 .94&#xA;2.12 -.3 .49 -.18 .89 .27 .89 .6 0 3.75 6.48 3.53 7.25 -.12 .41 .23 .75 .78&#xA;.75 .55 0 1 .68 1 1.51 0 .83 .45 2.41 1 3.5 .55 1.09 1.45 2.88 2 3.97 .55&#xA;1.09 1 2.41 1 2.93 0 .52 .52 2.22 1.16 3.76 .64 1.55 1.22 3.27 1.31 3.82&#xA;.08 .55 .42 1.67 .76 2.5 .68 1.69 2 7.19 2.4 10 .27 1.92 .76 4.17 1.09 5&#xA;.86 2.16 1.4 5.35 1.33 7.75 -.06 1.79 .3 3.25 .79 3.25 .49 0 .97 3.21 1.07&#xA;7.14 .1 3.93 .6 7.92 1.1 8.87 1.52 2.85 -.01 61.92 -1.72 65.99 -.35 .83&#xA;-.76 2.85 -.92 4.5 -.16 1.65 -.73 4.58 -1.25 6.5 -.53 1.92 -1.52 6.11 -2.2&#xA;9.3 -.69 3.19 -1.62 6.03 -2.07 6.31 -.46 .28 -.83 1.41 -.83 2.52 0 6.65&#xA;-23.57 50.88 -27.11 50.88 -.49 0 -.89 .56 -.89 1.25 0 1.19 -19.58 20.28&#xA;-25.9 25.25 -3.5 2.75 -7.17 5.76 -8.18 6.7 -1 .93 -3.19 2.41 -4.87 3.28&#xA;-1.68 .87 -3.05 1.97 -3.05 2.44 0 .48 -1.12 1.15 -2.5 1.49 -1.38 .35 -2.5&#xA;1.07 -2.5 1.61 0 .54 -.64 .98 -1.43 .98 -.79 0 -2.02 .58 -2.75 1.3 -1.82&#xA;1.78 -17.69 9.16 -19.07 8.86 -.41 -.09 -.75 .37 -.75 1.01 0 .64 -.3 .87&#xA;-.66 .51 -.36 -.36 -1.26 -.16 -2 .46 -.74 .61 -1.34 .82 -1.34 .46 0 -.36&#xA;-1.01 -.1 -2.25 .59 -1.24 .69 -2.59 1.32 -3 1.41 -.41 .09 -.98 .27 -1.25&#xA;.41 -.27 .14 -.95 .36 -1.5 .5 -.55 .14 -1.34 .36 -1.75 .49 -.41 .13 -1.13&#xA;.17 -1.61 .09 -.47 -.08 -1.37 .27 -2 .79 -1.09 .9 -13.83 4.15 -23.64 6.03&#xA;-23.08 4.43 -27.66 4.6 -113.31 4.37 -45.55 -.13 -83.23 -.49 -83.75 -.81&#xA;-1.54 -.95 -1.25 -374.76 .29 -376.3 .96 -.96 20.47 -1.16 89.25 -.89 48.41&#xA;.19 90.27 .64 93.02 1.01z m-105.61 422.66 c2.12 1.08 5 3.33 6.4 4.99 2.57&#xA;3.05 5.14 10.05 4.07 11.06 -.47 .44 -3.15 1.11 -5.96 1.48 -4.97 .66 -5.13&#xA;.6 -6.34 -2.33 -1.29 -3.12 -6.57 -6.14 -10.74 -6.14 -4.57 0 -7.32 2.65&#xA;-7.32 7.07 0 3.39 .47 4.25 3.25 5.96 1.79 1.1 6.4 2.94 10.25 4.1 13.56 4.07&#xA;18.27 8.29 19.2 17.21 .69 6.64 -2 13.29 -6.83 16.9 -11.48 8.58 -32.08 6.08&#xA;-38.37 -4.65 -1.37 -2.35 -2.5 -5.42 -2.5 -6.83 0 -2.41 .34 -2.59 5.6 -2.91&#xA;5.19 -.32 5.7 -.15 6.95 2.27 3.13 6.05 17.51 7.37 20.45 1.88 .55 -1.02 .99&#xA;-2.92 .99 -4.23 0 -3.62 -4.79 -7.37 -12.5 -9.8 -9.67 -3.04 -16.57 -7.17&#xA;-18.58 -11.12 -1.96 -3.85 -2.38 -11.48 -.85 -15.52 .59 -1.55 2.05 -3.87&#xA;3.25 -5.16 1.2 -1.29 3.53 -3.05 5.18 -3.92 6.77 -3.55 17.75 -3.68 24.39 -.3z&#xA;m135.75 .66 c11.02 5.23 17.36 16.27 17.36 30.25 0 8.9 -2.13 16.64 -6.08&#xA;22.09 l-3.1 4.28 3.1 3.2 3.1 3.2 -2.26 1.99 c-2.71 2.38 -4.06 3.56 -5.18&#xA;3.67 -1.12 .11 -2.01 -.87 -3.8 -2.82 -3.27 -3.56 -3.47 -3.64 -7.32 -2.57&#xA;-2.18 .6 -6.47 1.1 -9.53 1.1 -12.94 .01 -23.2 -6.55 -28.45 -18.19 -3.45&#xA;-7.65 -3.92 -18.84 -1.18 -27.94 1.93 -6.41 9.05 -14.98 14.94 -17.98 8.21&#xA;-4.19 19.93 -4.3 28.41 -.28z m234.97 -.69 c6.29 3.55 12.9 15.33 9.26 16.5&#xA;-.75 .24 -3.51 .73 -6.12 1.08 -3.84 .51 -4.75 .35 -4.75 -.87 0 -.83 -1.04&#xA;-2.71 -2.31 -4.19 -3.25 -3.78 -11.47 -4.65 -14.58 -1.54 -1.16 1.16 -2.12&#xA;3.26 -2.12 4.66 0 4.2 3.96 6.94 15.67 10.84 6.43 2.14 11.93 4.61 13.14 5.91&#xA;1.15 1.23 2.79 3.89 3.64 5.93 .85 2.04 1.55 4.73 1.54 5.99 -.02 8.33 -7.05&#xA;17.64 -14.92 19.76 -4.63 1.25 -15.57 1.24 -20.24 -.02 -5.43 -1.46 -11.23&#xA;-7.19 -12.89 -12.74 -.7 -2.33 -1.08 -4.4 -.86 -4.6 .23 -.2 3.04 -.58 6.25&#xA;-.83 5.36 -.43 5.91 -.28 6.7 1.82 2.34 6.14 16.58 7.64 20.43 2.14 .84 -1.2&#xA;1.53 -2.95 1.53 -3.88 0 -4.03 -5.05 -7.63 -15.23 -10.86 -8.43 -2.68 -10.92&#xA;-3.94 -13.95 -7.1 -8.81 -9.18 -4.37 -25.4 8.04 -29.38 6.49 -2.08 16.76&#xA;-1.42 21.75 1.4z m-190.44 22.1 c.31 21.4 .46 23.03 2.44 25.67 4.27 5.72&#xA;13.6 6.63 19.14 1.87 l2.75 -2.37 .3 -24.09 .3 -24.09 6.95 0 6.95 0 -.02&#xA;21.75 c-.01 11.96 -.49 23.77 -1.05 26.25 -1.35 5.94 -5.51 11.67 -10.65&#xA;14.69 -4.32 2.54 -5.66 2.81 -14.27 2.81 -8.58 0 -9.96 -.27 -14.22 -2.77&#xA;-2.59 -1.52 -5.81 -4.22 -7.15 -6 -3.9 -5.16 -4.62 -10.51 -4.63 -34.23 l-.01&#xA;-23 6.42 .33 6.42 .33 .33 22.85z m126.62 -20.11 c6.55 2.95 12.55 9.59 14.82&#xA;16.42 3.54 10.65 1.31 26.74 -4.7 34 -7.05 8.51 -16.9 11.64 -36.65 11.67&#xA;l-13.25 .01 -0 -32.75 -0 -32.75 17.25 .51 c15.37 .46 17.83 .77 22.54 2.89z&#xA;m-466.79 1.68 c0 4.14 -.85 5.81 -8.82 17.25 -6.82 9.79 -21.18 31.07 -21.18&#xA;31.38 -0 .16 6.75 .15 15 -.01 l15 -.3 0 6.05 0 6.05 -23.5 0 -23.5 0 0 -4.63&#xA;c0 -4.3 1.03 -6.16 14.49 -26.18 7.97 -11.85 14.32 -21.72 14.12 -21.92 -.2&#xA;-.2 -6.5 -.37 -13.99 -.38 l-13.62 -.01 0 -5.94 0 -5.94 23 0 23 0 0 4.58z&#xA;m56 1.42 l0 6 -14.5 0 -14.5 0 0 7 0 7 13.05 0 13.05 0 -.3 5.75 -.3 5.75&#xA;-12.75 .28 -12.75 .28 0 7.47 0 7.47 15 0 15 0 0 6 0 6 -21.5 0 -21.5 0 0&#xA;-32.5 0 -32.5 21 0 21 0 0 6z m60 0 l0 6 -9 0 -9 0 0 26.5 0 26.5 -7 0 -7 0 0&#xA;-26.5 0 -26.5 -8.8 0 -8.8 0 .05 -6 .05 -6 24.75 -0 24.75 -0 0 6z m83 16.75&#xA;c0 20.79 .17 23.03 1.95 25.95 4.05 6.64 15.53 6.63 20.45 -.02 1.95 -2.63&#xA;2.11 -4.34 2.42 -25.75 l.33 -22.93 6.48 0 6.48 0 -.31 24.75 c-.33 26.08&#xA;-.69 28.05 -6.18 34.1 -4.19 4.61 -9.98 6.62 -19.13 6.64 -9.24 .02 -14.45&#xA;-1.71 -19.06 -6.31 -6.37 -6.37 -6.92 -9.02 -7.27 -34.92 l-.33 -24.25 7.08 0&#xA;7.08 0 0 22.75z m210 9.75 l0 32.5 -6.5 0 -6.5 0 0 -32.5 0 -32.5 6.5 0 6.5 0&#xA;0 32.5z M437.05 332.25 c-.5 1.26 -.93 49.54 -.98 109.87 -.08 94.03 .1&#xA;107.77 1.4 108.85 1.14 .94 9.38 1.12 35.26 .75 29.44 -.42 34.87 -.74 42.28&#xA;-2.51 7.41 -1.77 18.18 -5.3 23 -7.52 2.81 -1.3 16.55 -9.29 18.34 -10.66 3.5&#xA;-2.69 12.21 -11.42 13.97 -14 1.7 -2.49 3.61 -5.05 4.24 -5.69 1.46 -1.5&#xA;10.03 -19.2 11.8 -24.39 1.42 -4.15 3.28 -11.58 4.14 -16.5 1.79 -10.28 2.77&#xA;-41 1.51 -47.4 -.49 -2.5 -1.12 -6.35 -1.39 -8.55 -.27 -2.2 -.8 -6.02 -1.19&#xA;-8.5 -.38 -2.48 -1.31 -5.71 -2.05 -7.19 -.74 -1.48 -1.06 -3.46 -.69 -4.41&#xA;.45 -1.17 .29 -1.5 -.51 -1 -1.02 .63 -1.68 -1.42 -1.24 -3.8 .09 -.5 -.27&#xA;-1.18 -.8 -1.51 -.53 -.33 -1.12 -1.26 -1.3 -2.07 -.18 -.81 -.9 -2.08 -1.59&#xA;-2.82 -.69 -.74 -1 -1.77 -.69 -2.27 .38 -.61 .23 -.92 -.42 -.92 -.55 0 -1.3&#xA;-1.01 -1.68 -2.25 -.38 -1.24 -1.69 -3.6 -2.91 -5.25 -1.23 -1.65 -2.41 -3.5&#xA;-2.63 -4.11 -1.36 -3.73 -19.85 -22.9 -19.94 -20.67 -.02 .43 -.49 -.01 -1.06&#xA;-.99 -.57 -.97 -1.45 -1.51 -1.97 -1.19 -.52 .32 -.94 .08 -.94 -.54 0 -.61&#xA;-.45 -.84 -1 -.5 -.61 .38 -1 .26 -1 -.3 0 -.51 -3.49 -2.51 -7.75 -4.45&#xA;-4.26 -1.94 -10.79 -4.47 -14.51 -5.61 -10.31 -3.17 -23.18 -4.14 -55 -4.14&#xA;l-31.81 0 -.89 2.25z M534.42 687.84 c-6.85 3.2 -8.9 7.73 -8.91 19.66 -.01&#xA;10.73 1.45 14.91 6.47 18.48 2.98 2.12 9.26 3.43 12.54 2.6 l2.62 -.66 -3.5&#xA;-4.87 -3.5 -4.87 4.03 -2.66 c2.21 -1.47 4.12 -2.52 4.24 -2.34 .12 .18 1.73&#xA;2.28 3.58 4.68 l3.36 4.35 1.58 -2.85 c1.12 -2.01 1.58 -5.51 1.58 -11.85 0&#xA;-13.99 -4.51 -20.49 -14.71 -21.2 -3.74 -.26 -6.49 .19 -9.37 1.54z M701&#xA;707.33 l0 20.92 7.75 -.48 c12.47 -.78 18.27 -5.18 20.16 -15.3 1.11 -5.92&#xA;-.26 -15.13 -2.73 -18.47 -1.02 -1.38 -3.34 -3.52 -5.16 -4.76 -2.37 -1.61&#xA;-4.9 -2.29 -8.91 -2.38 -3.08 -.07 -6.84 -.2 -8.35 -.3 l-2.75 -.17 0 20.92z" fill="#000000" fill-rule="evenodd" stroke="#000000" stroke-linejoin="round" stroke-width="0.80"/>
<path d="M436.25 443.05 c-.19 81.81 .03 106.83 .95 107.75 .66 .66 1.65 1.2 2.19 1.2&#xA;.55 0 .23 -.56 -.7 -1.25 -1.57 -1.16 -1.71 -9.04 -1.95 -107.75 l-.25 -106.5&#xA;-.25 106.55z" fill="#000000" fill-rule="evenodd" stroke="none"/>
</svg>