<svg version="1.1" xmlns="http://www.w3.org/2000/svg" style="display: block;" viewBox="0 0 2000 2000" width="500" height="500" preserveAspectRatio="none">
<defs>
	<linearGradient id="Gradient1" gradientUnits="userSpaceOnUse" x1="973.101" y1="419.532" x2="729.61" y2="323.548">
		<stop class="stop0" offset="0" stop-opacity="1" stop-color="rgb(254,122,43)"/>
		<stop class="stop1" offset="1" stop-opacity="1" stop-color="rgb(249,99,56)"/>
	</linearGradient>
	<linearGradient id="Gradient2" gradientUnits="userSpaceOnUse" x1="891.972" y1="983.292" x2="1690.14" y2="1112.64">
		<stop class="stop0" offset="0" stop-opacity="1" stop-color="rgb(254,143,26)"/>
		<stop class="stop1" offset="1" stop-opacity="1" stop-color="rgb(255,204,32)"/>
	</linearGradient>
</defs>
<path transform="translate(0,0)" fill="rgb(16,46,86)" d="M 952.511 256.423 C 953.288 256.368 954.064 256.313 954.84 256.258 C 1120.03 246.957 1283.68 292.38 1420.44 385.493 C 1472.6 421.602 1516.93 462.874 1558.22 510.681 C 1666.3 635.956 1729.24 793.856 1736.98 959.127 C 1748.17 1162.49 1677.15 1361.82 1539.88 1512.29 C 1413.31 1652.93 1235.77 1737.13 1046.77 1746.14 C 1020.07 1750.03 978.285 1747.67 950.977 1745.98 C 814.898 1737.55 683.954 1690.91 573.183 1611.42 C 551.245 1595.58 530.567 1577.83 510.331 1559.89 C 363.456 1428.25 274.624 1243.85 263.227 1046.95 C 252.609 874.113 301.147 702.81 400.853 561.234 C 525.563 385.758 737.118 267.548 952.511 256.423 z M 298.176 999.849 C 296.901 1019.32 298.789 1041.99 300.455 1061.36 C 306.98 1133.61 324.246 1204.47 351.684 1271.61 C 356.642 1283.75 362.724 1295.52 368.092 1307.47 C 374.245 1321.17 380.087 1337.77 387.818 1350.59 C 411.806 1390.37 441.797 1435.01 472.25 1469.79 C 559.395 1570.24 673.07 1644.12 800.257 1682.97 C 834.866 1693.33 863.01 1698.4 897.603 1705.11 C 939.105 1709.92 969.188 1710.72 1010.34 1711.02 C 1114.67 1711.77 1212.93 1689.09 1305.71 1641.08 C 1335.91 1625.45 1349.78 1620.69 1379.22 1600.27 C 1421.99 1570.59 1452.02 1547.99 1489.49 1511.31 C 1515.37 1485.54 1539.1 1457.7 1560.43 1428.06 C 1577.98 1404.18 1595.31 1377.77 1610.65 1352.33 C 1619.66 1337.39 1625.08 1321.96 1632.52 1306.68 C 1662.97 1244.17 1679.02 1188.75 1691.27 1120.64 C 1723.87 935.132 1681.53 744.266 1573.54 589.942 C 1492.28 472.88 1376.85 383.772 1243.03 334.798 C 1211.29 323.037 1181.58 313.035 1148.09 307.12 C 1121.57 300.116 1096.6 297.429 1069.45 294.613 C 944.688 281.673 828.885 302.768 714.309 353.187 C 690.097 365.613 659.793 378.394 637.633 391.824 C 548.625 445.311 472.892 518.269 416.119 605.218 C 407.227 618.622 393.38 638.596 386.342 652.812 C 366.461 692.966 346.532 738.707 332.895 781.095 C 314.484 837.392 303.318 895.805 299.667 954.924 C 298.589 970.536 298.962 984.967 298.176 999.849 z"/>
<path transform="translate(0,0)" fill="rgb(16,46,86)" d="M 714.309 353.187 C 828.885 302.768 944.688 281.673 1069.45 294.613 C 1096.6 297.429 1121.57 300.116 1148.09 307.12 C 1181.58 313.035 1211.29 323.037 1243.03 334.798 C 1376.85 383.772 1492.28 472.88 1573.54 589.942 C 1681.53 744.266 1723.87 935.132 1691.27 1120.64 C 1679.02 1188.75 1662.97 1244.17 1632.52 1306.68 C 1625.08 1321.96 1619.66 1337.39 1610.65 1352.33 C 1595.31 1377.77 1577.98 1404.18 1560.43 1428.06 C 1539.1 1457.7 1515.37 1485.54 1489.49 1511.31 C 1452.02 1547.99 1421.99 1570.59 1379.22 1600.27 C 1349.78 1620.69 1335.91 1625.45 1305.71 1641.08 C 1212.93 1689.09 1114.67 1711.77 1010.34 1711.02 C 969.188 1710.72 939.105 1709.92 897.603 1705.11 C 863.01 1698.4 834.866 1693.33 800.257 1682.97 C 673.07 1644.12 559.395 1570.24 472.25 1469.79 C 441.797 1435.01 411.806 1390.37 387.818 1350.59 C 380.087 1337.77 374.245 1321.17 368.092 1307.47 C 362.724 1295.52 356.642 1283.75 351.684 1271.61 C 324.246 1204.47 306.98 1133.61 300.455 1061.36 C 298.789 1041.99 296.901 1019.32 298.176 999.849 C 298.962 984.967 298.589 970.536 299.667 954.924 C 303.318 895.805 314.484 837.392 332.895 781.095 C 346.532 738.707 366.461 692.966 386.342 652.812 C 393.38 638.596 407.227 618.622 416.119 605.218 C 472.892 518.269 548.625 445.311 637.633 391.824 C 659.793 378.394 690.097 365.613 714.309 353.187 z M 1277.77 1194.88 C 1269.07 1211.96 1261.15 1225.01 1241.18 1230.98 C 1210.18 1240.25 1166.76 1243.81 1153.42 1206.08 C 1151.43 1200.5 1151.48 1194.53 1151.43 1188.82 C 1151.26 1168.39 1170.18 1149.74 1189.73 1145.55 C 1209.28 1141.35 1237.6 1137.45 1255.72 1148.38 C 1260.65 1151.34 1266.29 1156.27 1270.71 1159.98 C 1308.91 1144.77 1340.74 1125.11 1357.83 1085.53 C 1362.65 1074.35 1365.8 1062.52 1367.17 1050.42 C 1369.29 1032.27 1368.37 995.703 1368.15 975.85 C 1367.78 942.904 1369.48 902.453 1364.96 870.582 C 1361.57 847.529 1355.49 824.953 1346.83 803.318 C 1317.02 730.182 1258.98 672.148 1185.85 642.328 C 1115.38 613.106 1044.56 616.537 969.765 616.489 C 872.889 617.565 783.353 637.483 712.918 709.102 C 618.716 804.888 631.107 907.112 631.433 1030.8 C 631.853 1190.45 766.648 1292.61 918.861 1292.26 C 975.492 1291.63 1033.2 1293.23 1090.02 1292.2 C 1140.81 1291.2 1190.58 1277.76 1234.96 1253.05 C 1257.9 1238.62 1306.61 1202.76 1316.35 1177.92 L 1315.2 1177.27 C 1303.06 1182.94 1289.96 1190.39 1277.77 1194.88 z M 690.479 1434.8 C 780.712 1507.44 924.86 1551.52 1040.43 1539.8 C 1107.82 1532.97 1193.88 1508.89 1251.87 1473.13 C 1273.03 1461.89 1289.86 1450.11 1308.6 1435.52 C 1263.61 1393.51 1218.19 1372.67 1156.65 1370.18 C 1143.88 1406.49 1129.13 1422.83 1096.13 1442.51 C 1093.94 1471.77 1090.81 1486.58 1067.39 1507.13 C 1027.65 1542 956.348 1538.03 923.102 1495.65 C 908.658 1477.24 906.256 1465.08 904.839 1442.1 C 882.425 1427.81 869.657 1418.69 853.709 1396.02 C 849.113 1389.49 844.201 1370.08 839.313 1370.58 C 790.606 1372.63 756.841 1386.43 716.016 1414.36 C 706.989 1420.53 699.037 1428.3 690.479 1434.8 z"/>
<path transform="translate(0,0)" fill="url(#Gradient2)" d="M 1001.67 334.83 C 1004.4 333.601 1005.54 333.047 1008.2 331.463 C 1007.24 328.966 1004.58 324.472 1004.57 322.687 C 1010.7 317.34 1004.17 316.226 1005.52 307.761 C 1006.31 306.723 1012.81 297.484 1013.11 296.737 C 1010.28 295.588 1007.43 294.469 1004.58 293.379 C 1017.1 290.06 1090.97 298.603 1108.16 301.246 C 1118.52 302.839 1136.55 307.188 1147.26 307.227 C 1147.54 307.191 1147.81 307.155 1148.09 307.12 C 1181.58 313.035 1211.29 323.037 1243.03 334.798 C 1376.85 383.772 1492.28 472.88 1573.54 589.942 C 1681.53 744.266 1723.87 935.132 1691.27 1120.64 C 1679.02 1188.75 1662.97 1244.17 1632.52 1306.68 C 1625.08 1321.96 1619.66 1337.39 1610.65 1352.33 C 1595.31 1377.77 1577.98 1404.18 1560.43 1428.06 C 1539.1 1457.7 1515.37 1485.54 1489.49 1511.31 C 1452.02 1547.99 1421.99 1570.59 1379.22 1600.27 C 1349.78 1620.69 1335.91 1625.45 1305.71 1641.08 C 1212.93 1689.09 1114.67 1711.77 1010.34 1711.02 C 969.188 1710.72 939.105 1709.92 897.603 1705.11 C 901.675 1686.17 904.826 1665.23 908.736 1645.86 C 913.243 1623.53 920.521 1594.03 923.018 1571.78 C 943.349 1576.83 1000.45 1577.89 1022.74 1576.69 C 1107.82 1571.77 1200.27 1547.59 1274 1504.42 C 1309.28 1483.77 1358.04 1448.09 1384.55 1418.19 C 1388.33 1415.5 1404.33 1397.98 1407.74 1394.17 C 1407.86 1394.07 1407.99 1393.98 1408.11 1393.88 C 1459.5 1342.72 1517.72 1245.41 1536.93 1177.64 C 1582 1018.68 1566.35 832.998 1472.76 694.416 C 1459.15 671.991 1446.47 651.283 1428.8 631.599 C 1391.05 589.556 1358.54 557.837 1310.66 527.062 C 1260.08 494.55 1210.74 464.563 1150.32 452.172 C 1127.8 447.554 1110.64 440.831 1086.78 439.611 C 1086.85 437.155 1086.91 434.697 1086.94 432.24 C 1087.37 399.881 1079.84 384.545 1058.09 362.229 C 1059.2 350.971 1012.74 335.674 1001.67 334.83 z"/>
<path transform="translate(0,0)" fill="rgb(16,149,209)" d="M 298.176 999.849 C 342.134 999.916 394.213 998.573 437.384 1000.36 L 437.47 1001.42 C 438.51 1015.21 437.768 1029.61 438.447 1043.41 C 447.52 1227.89 559.34 1398.23 713.284 1496.23 C 772.464 1533.91 852.847 1560.64 923.018 1571.78 C 920.521 1594.03 913.243 1623.53 908.736 1645.86 C 904.826 1665.23 901.675 1686.17 897.603 1705.11 C 863.01 1698.4 834.866 1693.33 800.257 1682.97 C 673.07 1644.12 559.395 1570.24 472.25 1469.79 C 441.797 1435.01 411.806 1390.37 387.818 1350.59 C 380.087 1337.77 374.245 1321.17 368.092 1307.47 C 362.724 1295.52 356.642 1283.75 351.684 1271.61 C 324.246 1204.47 306.98 1133.61 300.455 1061.36 C 298.789 1041.99 296.901 1019.32 298.176 999.849 z"/>
<path transform="translate(0,0)" fill="rgb(244,73,72)" d="M 298.176 999.849 C 298.962 984.967 298.589 970.536 299.667 954.924 C 303.318 895.805 314.484 837.392 332.895 781.095 C 346.532 738.707 366.461 692.966 386.342 652.812 C 393.38 638.596 407.227 618.622 416.119 605.218 C 472.892 518.269 548.625 445.311 637.633 391.824 C 659.793 378.394 690.097 365.613 714.309 353.187 C 722.537 361.82 756.898 461.003 766.979 479.85 L 766.69 481.67 C 725.977 501.482 677.429 531.62 642.004 560.726 C 613.8 583.899 585.512 616.672 560.983 643.616 C 544.522 664.679 525.321 695.677 510.635 718.589 C 492.491 746.897 478.616 783.434 466.317 814.652 C 450.062 866.341 435.947 946.311 437.384 1000.36 C 394.213 998.573 342.134 999.916 298.176 999.849 z"/>
<path transform="translate(0,0)" fill="url(#Gradient1)" d="M 714.309 353.187 C 828.885 302.768 944.688 281.673 1069.45 294.613 C 1096.6 297.429 1121.57 300.116 1148.09 307.12 C 1147.81 307.155 1147.54 307.191 1147.26 307.227 C 1136.55 307.188 1118.52 302.839 1108.16 301.246 C 1090.97 298.603 1017.1 290.06 1004.58 293.379 C 1007.43 294.469 1010.28 295.588 1013.11 296.737 C 1012.81 297.484 1006.31 306.723 1005.52 307.761 C 1004.17 316.226 1010.7 317.34 1004.57 322.687 C 1004.58 324.472 1007.24 328.966 1008.2 331.463 C 1005.54 333.047 1004.4 333.601 1001.67 334.83 C 998.26 335.387 996.734 334.952 994.884 336.927 C 995.57 337.627 996.142 338.326 996.927 338.851 C 977.247 340.47 965.146 345.248 949.517 357.3 C 921.046 379.256 911.837 403.065 913.003 438.93 C 891.36 441.702 874.274 447.27 853.439 451.668 C 820.506 458.619 797.167 467.556 766.69 481.67 L 766.979 479.85 C 756.898 461.003 722.537 361.82 714.309 353.187 z"/>
<path transform="translate(0,0)" fill="rgb(254,120,44)" d="M 1001.67 334.83 C 1012.74 335.674 1059.2 350.971 1058.09 362.229 C 1057.07 361.684 1047.03 354.119 1044.92 352.715 C 1029.22 342.245 1015.49 339.4 996.927 338.851 C 996.142 338.326 995.57 337.627 994.884 336.927 C 996.734 334.952 998.26 335.387 1001.67 334.83 z"/>
<path transform="translate(0,0)" fill="rgb(16,49,81)" d="M 1384.55 1418.19 L 1383.81 1417.33 C 1386.8 1410.21 1394.95 1401.47 1401 1396.57 C 1405.07 1393.26 1403.64 1393.71 1407.74 1394.17 C 1404.33 1397.98 1388.33 1415.5 1384.55 1418.19 z"/>
<path transform="translate(0,0)" fill="rgb(16,46,86)" d="M 1148.99 801.952 C 1218.78 789.888 1285.16 836.587 1297.39 906.345 C 1309.61 976.102 1263.07 1042.59 1193.34 1054.98 C 1123.38 1067.41 1056.62 1020.68 1044.36 950.69 C 1032.09 880.703 1078.98 814.055 1148.99 801.952 z M 1180.44 1020.78 C 1231.6 1015.35 1268.58 969.338 1262.88 918.21 C 1257.18 867.082 1210.98 830.346 1159.88 836.314 C 1109.16 842.238 1072.75 888.023 1078.41 938.772 C 1084.07 989.521 1129.66 1026.17 1180.44 1020.78 z"/>
<path transform="translate(0,0)" fill="rgb(16,46,86)" d="M 1162.93 869.959 C 1195.38 865.669 1225.16 888.503 1229.44 920.953 C 1233.71 953.402 1210.86 983.17 1178.41 987.429 C 1145.98 991.686 1116.24 968.856 1111.97 936.428 C 1107.69 904.001 1130.51 874.247 1162.93 869.959 z"/>
<path transform="translate(0,0)" fill="rgb(16,46,86)" d="M 809.701 801.798 C 879.614 790.421 945.49 837.938 956.755 907.869 C 968.02 977.8 920.397 1043.6 850.449 1054.75 C 780.658 1065.88 715.039 1018.39 703.8 948.616 C 692.561 878.844 739.947 813.149 809.701 801.798 z M 837.434 1020.51 C 870.611 1017.68 899.704 997.23 913.605 966.973 C 927.505 936.716 924.065 901.323 904.599 874.309 C 885.133 847.294 852.647 832.831 819.546 836.442 C 769.198 841.935 732.636 886.906 737.535 937.314 C 742.434 987.723 786.971 1024.81 837.434 1020.51 z"/>
<path transform="translate(0,0)" fill="rgb(16,46,86)" d="M 822.432 869.953 C 843.496 867.183 864.421 875.954 877.213 892.917 C 890.004 909.879 892.685 932.409 884.231 951.899 C 875.776 971.389 857.493 984.826 836.368 987.076 C 804.26 990.495 775.372 967.46 771.557 935.397 C 767.742 903.333 790.419 874.163 822.432 869.953 z"/>
<path transform="translate(0,0)" fill="rgb(16,46,86)" d="M 890.296 1098.25 C 902.763 1099.44 910.535 1116.14 922.94 1124.75 C 945.584 1140.47 983.936 1154.22 1011.62 1150.05 C 1035.43 1146.47 1066.08 1134.3 1084.72 1118.76 C 1088.53 1114.88 1091.28 1109.95 1094.45 1105.5 C 1103.46 1092.87 1126.17 1098.76 1127.02 1114.52 C 1127.62 1125.51 1120.98 1133.44 1113.77 1141.14 C 1096.95 1160.65 1060.68 1178.33 1035.67 1183.76 C 991.757 1193.34 945.83 1184.71 908.398 1159.82 C 897.481 1152.65 875.072 1135.62 872.901 1122.02 C 870.71 1108.31 876.391 1099.85 890.296 1098.25 z"/>
<path transform="translate(0,0)" fill="rgb(48,181,210)" d="M 1074.74 471.784 C 1196.15 492.027 1307.04 553.022 1389.15 644.719 C 1484.1 750.703 1532.81 890.201 1524.49 1032.25 C 1523.27 1055.38 1520.87 1088.02 1515.9 1110.61 C 1505.83 1156.33 1488.83 1202.25 1467.34 1243.83 C 1461.78 1254.58 1455.83 1268.74 1449.5 1278.7 C 1418.25 1327.87 1379.55 1373.63 1336.29 1412.48 C 1294.87 1372.53 1264.71 1356.78 1209.55 1340.85 C 1194.59 1336.74 1175.62 1334.84 1159.97 1332.97 C 1159.38 1328.83 1159.54 1324.8 1159.54 1320.62 C 1192.41 1311.74 1217.25 1305.22 1248.55 1288.76 C 1292.13 1265.86 1340.74 1218 1364.83 1175.14 C 1378.7 1150.47 1391.06 1111.39 1400 1085.31 C 1428.09 1084.2 1446.11 1077.05 1465.66 1056.92 C 1496.04 1025.62 1496.27 1002.79 1495.86 961.321 C 1496.18 944.251 1495.46 926.244 1495.7 909.279 C 1496.32 878.441 1483.68 852.945 1461.55 831.978 C 1438.43 810.077 1418.23 809.256 1388.31 810.239 C 1369.73 750.636 1345.34 718.001 1302.1 674.108 C 1276.52 648.129 1255.04 634.697 1222.46 618.952 C 1156.53 587.097 1096.16 578.671 1023.79 578.116 L 1023.09 515.715 C 1045.53 507.824 1061.62 490.853 1074.74 471.784 z"/>
<path transform="translate(0,0)" fill="rgb(48,181,210)" d="M 921.307 473.367 C 924.031 472.874 922.66 472.873 925.432 474.014 C 937.999 492.893 955.034 506.483 975.784 515.283 C 976.351 535.238 975.961 557.724 976.01 577.844 C 861.667 579.56 752.155 606.504 674.507 697.459 C 637.521 740.783 635.607 752.046 612.873 803.897 C 587.165 805.462 564.134 807.395 544.337 825.23 C 502.332 863.072 502.788 900.204 504.204 951.975 C 505.335 993.303 499.006 1020.3 530.184 1054.14 C 552.102 1077.93 567.553 1084.36 599.706 1086.36 C 615.145 1173.55 676.494 1254.94 757.716 1292.52 C 785.498 1305.38 808.881 1313.15 838.715 1320.49 C 838.406 1324.27 838.323 1328.36 838.166 1332.17 C 823.924 1334.1 809.777 1336.69 795.771 1339.91 C 764.107 1347.57 724.261 1364.25 697.791 1382.58 C 686.472 1390.42 673.109 1402.08 662.507 1411.21 C 618.214 1370.72 581.252 1328.76 549.276 1277.36 C 542.358 1266.24 534.225 1247.35 527.867 1235.16 C 503.081 1187.64 486.594 1135.26 478.835 1082.11 C 457.869 939.939 494.636 795.285 580.945 680.378 C 619.689 629.119 667.052 584.99 720.918 549.963 C 731.081 543.478 743.456 538.107 753.952 532.12 C 800.389 505.631 868.323 481.105 921.307 473.367 z"/>
<path transform="translate(0,0)" fill="rgb(48,181,210)" d="M 990.193 1388.25 C 1005.3 1386.81 1020.12 1388.04 1033.4 1396.03 C 1093.78 1432.41 1078.32 1492.17 1012.28 1506.36 C 994.008 1508.45 973.045 1505.99 957.552 1495.77 C 933.869 1480.15 919.22 1448.59 937.882 1423.05 C 951.978 1403.76 966.79 1392.7 990.193 1388.25 z"/>
<path transform="translate(0,0)" fill="rgb(16,46,86)" d="M 1004.1 1410.79 C 1009.35 1411.37 1020.01 1421.43 1024.63 1425.69 C 1032.5 1432.96 1053.9 1446.1 1048.68 1457.94 C 1034.27 1468.48 1018.28 1445.47 1007.34 1439.07 C 1002.48 1440.29 990.653 1443.36 988.887 1448.14 C 993.306 1458.88 1015.36 1455.95 1020.84 1466.5 C 1021.21 1470.61 1021.7 1472.53 1020.66 1476.43 C 1015.19 1482.34 985.807 1497.13 980.49 1485.75 C 975.798 1475.71 989.941 1473.7 996.369 1471.95 C 996.113 1471.83 995.855 1471.72 995.6 1471.6 C 987.483 1467.76 963.661 1462.91 958.801 1457.32 C 957.136 1455.41 956.872 1453.94 957.058 1451.43 C 957.791 1441.59 994.983 1417.24 1004.1 1410.79 z"/>
<path transform="translate(0,0)" fill="rgb(16,149,209)" d="M 876.72 1329.69 C 931.227 1331.26 985.756 1331.94 1040.29 1331.71 C 1066.03 1331.77 1095.76 1330.65 1121.06 1331.92 C 1120.64 1354.56 1117.76 1368.62 1103.79 1386.9 C 1099.53 1392.47 1088.64 1405.79 1081.57 1406.84 L 1079.68 1405.38 C 1053.42 1374.82 1022.56 1352.4 979.552 1363.19 C 952.081 1370.09 937.332 1386 919.197 1406.42 C 886.864 1385.2 879.792 1366.39 876.72 1329.69 z"/>
<path transform="translate(0,0)" fill="rgb(48,181,210)" d="M 590.53 844.062 L 591.666 844.29 C 595.018 849.006 593.752 906.97 593.749 917.776 L 593.428 1049.18 C 579.798 1045.93 571.899 1044.12 560.661 1035.63 C 529.05 1003.78 544.844 955.355 541.118 914.065 C 537.729 876.515 554.965 854.744 590.53 844.062 z"/>
<path transform="translate(0,0)" fill="rgb(48,181,210)" d="M 1407.11 843.855 C 1476.06 862.3 1456.27 916.147 1459.15 970.55 C 1460.55 997.075 1458.97 1010.07 1441.8 1030.29 C 1430.23 1041.49 1422.14 1042.99 1406.93 1046.81 C 1406.12 1022.89 1406.73 995.269 1406.76 971.048 L 1407.11 843.855 z"/>
<path transform="translate(0,0)" fill="rgb(48,181,210)" d="M 993.082 374.784 C 1021.24 371.18 1047.02 391.018 1050.75 419.163 C 1054.48 447.309 1034.76 473.176 1006.63 477.031 C 978.324 480.911 952.257 461.037 948.504 432.712 C 944.751 404.388 964.741 378.411 993.082 374.784 z"/>
</svg>