<svg version="1.1" xmlns="http://www.w3.org/2000/svg" style="display: block;" viewBox="0 0 2048 2048" width="1024" height="1024" preserveAspectRatio="none">
<defs>
	<linearGradient id="Gradient1" gradientUnits="userSpaceOnUse" x1="1472.7" y1="1222.35" x2="1627.17" y2="1243.2">
		<stop class="stop0" offset="0" stop-opacity="1" stop-color="rgb(136,69,164)"/>
		<stop class="stop1" offset="1" stop-opacity="1" stop-color="rgb(169,108,193)"/>
	</linearGradient>
	<linearGradient id="Gradient2" gradientUnits="userSpaceOnUse" x1="400.712" y1="1148.11" x2="613.167" y2="1425.87">
		<stop class="stop0" offset="0" stop-opacity="1" stop-color="rgb(125,57,144)"/>
		<stop class="stop1" offset="1" stop-opacity="1" stop-color="rgb(85,55,154)"/>
	</linearGradient>
	<linearGradient id="Gradient3" gradientUnits="userSpaceOnUse" x1="995.86" y1="1030.38" x2="729.875" y2="689.216">
		<stop class="stop0" offset="0" stop-opacity="1" stop-color="rgb(71,49,144)"/>
		<stop class="stop1" offset="1" stop-opacity="1" stop-color="rgb(137,67,157)"/>
	</linearGradient>
</defs>
<path transform="translate(0,0)" fill="rgb(21,22,24)" d="M 1006.62 112.447 C 1042.07 110.469 1098.63 114.7 1133.19 118.972 C 1305.21 139.269 1467.39 209.999 1599.3 322.259 C 1856.93 539.269 1971.01 882.487 1894.55 1210.55 C 1884.39 1253.46 1871.13 1295.58 1854.87 1336.58 C 1849.86 1349.45 1823.08 1400.96 1823.16 1407.95 C 1823.27 1417.14 1839.02 1438.63 1843.67 1447.68 C 1848.03 1456.15 1852.14 1464.97 1855.46 1473.9 C 1864.45 1498.1 1869.28 1524.22 1871.41 1549.86 C 1877.77 1626.77 1853.75 1709 1803.3 1767.97 C 1784.49 1789.95 1760.5 1810.74 1732.75 1820.27 C 1706.09 1829.43 1656.16 1825.95 1626.5 1825.93 L 1530.35 1825.87 C 1516.42 1825.87 1483.25 1825.07 1471.31 1827.97 C 1462.29 1830.17 1432.99 1845.66 1422.78 1850.59 C 1402.31 1860.44 1381.54 1869.66 1360.51 1878.24 C 1288.19 1907.78 1212.33 1927.75 1134.84 1937.62 C 1102.09 1941.57 1075.37 1942.42 1043.24 1944.9 C 913.809 1944.89 796.09 1924.76 676.177 1874.06 C 644.03 1860.47 605.728 1840.24 573.482 1827.37 C 567.446 1824.96 528.587 1826.02 519.288 1826.04 L 402.007 1825.89 C 381.815 1825.86 347.58 1826.92 328.733 1823.51 C 285.972 1815.34 250.61 1781.41 227.025 1747.22 C 171.391 1666.58 157.422 1558.05 194.931 1467.08 C 197.462 1460.94 199.991 1455.47 202.943 1449.47 C 209.87 1435.39 220.952 1422.55 223.65 1406.89 L 223.882 1405.46 C 220.825 1396.09 212.42 1380.73 207.841 1371.07 C 200.102 1354.46 193.01 1337.56 186.581 1320.4 C 151.269 1225.21 132.191 1124.77 130.144 1023.26 C 125.562 790.599 212.452 565.427 372.135 396.15 C 402.75 364.338 437.698 330.839 472.352 303.473 C 624.996 183.511 812.523 116.461 1006.62 112.447 z M 428.553 1434.16 C 425.169 1430.8 420.709 1427 417.064 1423.93 C 368.576 1383.02 330.322 1326.07 325.82 1261.45 C 322.203 1209.51 340.631 1167.75 363.352 1122.64 C 387.503 1074.68 419.628 1037.34 471.876 1020.01 C 479.435 1016.5 493.534 1014.81 500.434 1011.3 C 532.352 995.066 551.076 990.263 587.327 988.372 C 573.361 963.417 561.373 943.02 560.573 913.656 C 559.673 880.556 569.88 857.113 592.131 833.232 C 588.482 799.562 586.106 774.417 599.058 741.849 C 624.166 678.717 680.329 640.412 740.317 615.534 C 738.082 592.488 735.355 567.204 734.564 544.483 C 731.078 444.33 755.513 334.296 825.875 259.508 C 832.888 252.054 848.46 242.286 848.687 259.666 C 848.766 265.671 836.401 289.794 833.519 296.732 C 826.491 313.484 820.584 330.685 815.838 348.221 C 794.791 429.684 791.944 514.784 807.5 597.472 C 823.289 596.683 839.618 594.075 855.51 593.179 C 869.98 592.363 884.404 592.73 898.893 592.931 C 904.761 567.052 911.453 536.142 919.356 510.987 C 950.111 414.955 999.442 315.632 1079.77 251.646 C 1089.76 243.691 1125.61 214.297 1137.11 229.141 C 1136.97 239.494 1108.49 266.341 1101.03 276.537 C 1033.15 369.279 988.159 490.835 968.163 603.281 C 1056.04 626.236 1102.72 677.667 1136.04 759.856 C 1135.31 716.593 1138.45 687.614 1151.61 645.721 C 1185.77 537.034 1264.74 438.055 1366.29 385.608 C 1410.57 362.741 1462.67 349.407 1511.98 364.963 C 1521.44 367.949 1531.61 374.139 1535.88 383.577 C 1538.82 389.961 1538.89 397.301 1536.06 403.738 C 1524.6 430.309 1478.86 457.618 1466.39 490.366 C 1474.53 533.554 1491.16 571.255 1458.69 610.613 C 1452.84 617.7 1445.77 623.318 1440.09 630.653 C 1441.84 648.36 1445.24 662.619 1440.56 680.583 C 1439.21 685.785 1436.17 695.464 1438.3 700.418 C 1443.03 701.472 1477.74 688.023 1483.57 685.258 C 1485.92 672.051 1485.29 661.837 1490.09 648.305 C 1503.31 611.052 1522.1 600.487 1554.04 583.956 C 1558.32 576.414 1560.61 565.928 1563.76 557.742 C 1572.58 534.781 1576.21 501.942 1593.53 483.611 C 1602.31 474.335 1614.55 469.125 1627.33 469.228 C 1638.56 469.306 1649.07 474.223 1656.15 482.607 C 1698.48 532.687 1723.65 635.659 1721.44 699.084 C 1718.17 792.982 1688.09 878.718 1617.57 942.339 C 1553.34 1000.28 1481.1 1022.56 1396.87 1020.11 C 1370.1 1057.3 1342.24 1083.94 1293.98 1090.54 C 1283.7 1091.95 1271.63 1091.42 1261.15 1091.51 C 1240.52 1107.18 1232.29 1109.82 1208.25 1118.59 C 1210.55 1126.62 1213.03 1134.14 1215.67 1142.07 C 1245.03 1158.54 1254.24 1152.46 1268.58 1189.86 C 1297.79 1191.63 1317.82 1195.67 1335.99 1220.79 C 1357.51 1217.07 1366.67 1217.39 1388.6 1218.28 C 1392.53 1206.55 1394.59 1190.92 1398.04 1178.35 C 1407.37 1144.58 1422.47 1114.16 1448.04 1089.24 C 1486.51 1052.06 1562.11 1019.7 1606.4 1065.51 C 1634.09 1094.15 1625.06 1122.1 1623.77 1156.02 C 1643.89 1162.2 1673.79 1170.98 1676.64 1195.44 C 1680.48 1228.35 1651.84 1258.87 1635.4 1282.91 C 1657.37 1294.5 1663.24 1295.38 1676.36 1317.92 C 1683.93 1294.5 1697.2 1271.26 1704.98 1247.23 C 1743.29 1128.88 1758.7 995.181 1732.9 872.582 C 1730.64 861.884 1726.95 847.949 1727.02 836.814 C 1727.16 815.399 1742.15 793.593 1745.7 772.326 C 1748.29 759.857 1752.07 723.125 1756.54 716.1 C 1759.93 714.395 1758.22 714.643 1761.8 715.086 C 1777.54 725.255 1800.97 818.207 1805.55 839.566 C 1839.91 1000.54 1823.43 1168.21 1758.38 1319.41 C 1743.73 1353.18 1728.15 1384.82 1707.8 1415.61 C 1704.1 1421.2 1700.07 1427.23 1696.53 1432.89 C 1714.32 1433.73 1728.75 1434.07 1746.66 1434.06 C 1758.66 1419.41 1775.61 1384.97 1783.83 1367.53 C 1832.12 1266.61 1859.64 1157.01 1864.74 1045.25 C 1875.5 822.269 1796.7 604.237 1645.86 439.669 C 1455.35 232.683 1176.32 133.315 898.673 174.454 C 726.33 199.99 574.953 275.987 447.842 394.082 C 286.105 544.271 190.751 752.625 182.807 973.197 C 177.791 1111.08 204.131 1247.89 265.319 1372.27 C 273.859 1389.63 289.221 1420.32 301.912 1433.98 C 313.474 1434.47 328.763 1433.98 340.668 1433.96 C 369.963 1433.81 399.259 1433.88 428.553 1434.16 z M 694.183 1159.43 C 671.964 1145.31 642.716 1142.39 617.039 1143.42 C 612.968 1143.66 608.99 1143.33 605.865 1145.72 C 605.874 1147.74 605.522 1147.9 606.918 1148.82 C 618.408 1156.42 628.369 1159.41 640.152 1168.06 C 678.326 1196.14 708.092 1242.43 709.685 1290.79 C 710.768 1323.64 700.236 1364.54 678.027 1389.73 C 665.699 1403.7 643.908 1410.84 630.252 1395.36 C 615.43 1378.56 609.26 1343.19 603.678 1321.3 C 566.566 1315.35 558.445 1306.16 545.613 1272.29 C 538.879 1280.45 533.019 1286.81 534.81 1298.48 C 536.54 1309.74 543.56 1324.87 547.995 1335.7 C 562.762 1364.46 579.828 1387.57 606.886 1406.46 C 623.172 1417.83 629.507 1419.24 643.262 1433.67 C 663.794 1434.2 684.224 1433.89 704.739 1434.14 C 717.878 1383.95 725.78 1362 767.484 1331 C 763.267 1320.75 753.912 1313.49 747.331 1304.55 C 723.865 1272.68 709.807 1233.28 714.364 1193.44 C 703.317 1179.36 701.302 1175.85 694.183 1159.43 z M 1609.2 1431.97 C 1614.07 1422.73 1634.56 1394.83 1641.81 1384.33 C 1614.37 1396.13 1593.81 1403.69 1563.31 1404.53 C 1513.37 1405.91 1469.23 1385.84 1434.36 1350.85 C 1427.78 1356.42 1417.11 1364.9 1411.27 1370.55 C 1423.88 1384.32 1429.76 1391.07 1438.35 1408.46 C 1441.26 1414.35 1447.6 1428.35 1450.59 1433.29 C 1464.1 1434.05 1602.94 1434.88 1609.2 1431.97 z M 1165.67 912.163 C 1183.76 891.364 1180.06 895.849 1165.28 871.081 C 1163.59 868.238 1158.99 860.273 1156.7 858.506 C 1153.56 877.814 1151.1 890.591 1145.64 909.462 C 1149.79 910.071 1162.13 912.148 1165.67 912.163 z M 807.944 1433.25 C 811.143 1433.44 813.749 1434.25 815.942 1432.11 C 819.799 1428.35 821.781 1424.3 821.882 1419.12 L 820.64 1417.68 C 816.546 1420.92 807.737 1427.13 806.334 1432 C 806.854 1432.43 807.308 1433.01 807.944 1433.25 z"/>
<path transform="translate(0,0)" fill="rgb(248,108,44)" d="M 226.082 1016.73 C 222.795 820.716 291.431 640.691 418.999 492.666 C 492.23 407.047 582.658 337.795 684.405 289.412 C 696.839 283.399 738.823 260.778 749.838 270.351 C 755.299 281.388 732.224 310.22 727.104 321.742 C 721.947 333.347 714.865 346.352 708.974 357.645 C 706.523 362.343 701.217 369.012 696.932 371.991 C 675.613 386.343 652.685 396.758 630.785 410.885 C 580.319 443.439 543.166 478.294 501.48 520.811 C 372.431 652.885 300.664 830.516 301.747 1015.17 C 299.942 1017.12 299.891 1016.89 296.109 1016.84 C 282.359 1016.68 268.374 1016.5 254.636 1016.25 C 246.866 1016.1 232.72 1017.38 226.082 1016.73 z"/>
<path transform="translate(0,0)" fill="rgb(112,167,65)" d="M 226.082 1016.73 C 232.72 1017.38 246.866 1016.1 254.636 1016.25 C 268.374 1016.5 282.359 1016.68 296.109 1016.84 C 299.891 1016.89 299.942 1017.12 301.747 1015.17 C 301.55 1040.36 302.823 1065.53 305.559 1090.57 C 307.314 1106.76 310.669 1126.22 310.625 1142.21 C 310.598 1152.26 302.822 1171.31 300.448 1182.05 C 296.174 1201.38 294.153 1218.5 293.615 1238.31 C 293.072 1254.96 293.278 1271.62 294.23 1288.25 C 294.723 1296 297.21 1317.21 296.514 1323.28 C 286.935 1320.24 270.698 1270.86 267.019 1259.89 C 245.324 1196.62 232.224 1130.73 228.071 1063.97 C 227.002 1048.23 225.757 1032.51 226.082 1016.73 z"/>
<path transform="translate(0,0)" fill="rgb(188,36,92)" d="M 249.907 1478.09 L 1154.74 1477.95 L 1212.38 1477.84 C 1219.47 1477.83 1239.85 1477.42 1246.18 1478.75 C 1268.39 1483.4 1300.72 1522.4 1323.13 1500.05 C 1327.95 1495.24 1329.19 1484.81 1330.5 1478.01 L 1638.53 1477.89 C 1688.88 1477.89 1747.03 1476.45 1796.94 1478.05 C 1851.97 1557.76 1812.27 1709.82 1738.47 1768.37 C 1719.3 1783.58 1685.31 1779.21 1661.27 1779.19 L 1517.48 1779.15 C 1500.54 1779.14 1450.58 1778.14 1436.06 1781.52 C 1384.62 1810.02 1330.4 1833.18 1274.24 1850.64 C 1102.9 1903.38 919.253 1900.49 749.662 1842.36 C 703.814 1826.67 653.372 1803.67 610.881 1781.29 C 598.483 1777.53 564.058 1779.08 549.896 1779.14 L 411.265 1779.24 C 387.633 1779.24 363.933 1779.39 340.319 1779.06 C 326.782 1778.87 310.901 1770.19 301.047 1761.22 C 230.695 1697.16 197.427 1560.7 249.907 1478.09 z"/>
<path transform="translate(0,0)" fill="rgb(252,190,26)" d="M 610.881 1781.29 C 621.091 1780.09 646.625 1780.63 657.853 1780.58 C 691.285 1780.31 724.719 1780.35 758.15 1780.68 L 1060.64 1780.7 L 1318.45 1780.63 C 1345.51 1780.46 1372.56 1780.53 1399.61 1780.82 C 1405.56 1780.85 1431.69 1780.65 1436.06 1781.52 C 1384.62 1810.02 1330.4 1833.18 1274.24 1850.64 C 1102.9 1903.38 919.253 1900.49 749.662 1842.36 C 703.814 1826.67 653.372 1803.67 610.881 1781.29 z"/>
<path transform="translate(0,0)" fill="rgb(251,250,249)" d="M 1568.67 1666.03 C 1576.16 1630.47 1581.97 1593.98 1589.15 1558.31 C 1591.34 1547.4 1592.47 1534.43 1597.55 1524.57 C 1602.07 1520.62 1632.46 1522.55 1639.89 1522.74 C 1649.46 1543.93 1665.51 1640.61 1668.83 1667.2 C 1674.6 1643.6 1688.42 1535.37 1697.4 1524.12 C 1704.08 1521.04 1728.96 1523.03 1737.87 1522.74 C 1748.9 1522.37 1734.94 1570.93 1733.6 1577.12 C 1729.49 1598.09 1708.35 1720.88 1701.48 1731.87 C 1693.59 1735.24 1656.4 1733.52 1645.66 1732.98 C 1643.3 1725.6 1641.26 1717.97 1639.68 1710.39 C 1632.84 1677.41 1624.28 1644.1 1620.1 1610.69 C 1615.78 1630.64 1600.25 1720.5 1590.99 1731.97 C 1583.97 1735.22 1547.13 1733.45 1537.79 1732.8 C 1535.48 1725.24 1533.19 1710.28 1531.67 1702.07 C 1528.52 1684.87 1525.19 1667.71 1521.69 1650.58 L 1506.7 1577.67 C 1503.2 1561.33 1498.65 1543.06 1496.21 1526.72 L 1498.24 1524.17 C 1502.61 1521.92 1507.99 1522.5 1513.11 1522.47 C 1519.77 1522.41 1541.92 1521.13 1546.12 1524.54 C 1552.04 1536.56 1567.59 1647.73 1568.67 1666.03 z"/>
<path transform="translate(0,0)" fill="rgb(251,250,249)" d="M 1398.66 1522.48 C 1414.97 1522.3 1440.43 1521.7 1456.18 1523.02 C 1461.16 1533.22 1464.92 1549.95 1467.59 1561.32 C 1477.93 1605.29 1486.6 1649.72 1496.01 1693.9 C 1498.65 1706.28 1501.78 1720.08 1502.72 1732.63 C 1489.93 1733.9 1468.21 1733.82 1455.52 1733 C 1452.06 1722.51 1448.81 1706.55 1446.24 1695.35 L 1445.01 1694.03 C 1430.52 1693.33 1412.97 1693.87 1398.25 1693.97 C 1397.32 1702.65 1395.07 1726.39 1388.48 1731.28 C 1381.41 1736.53 1353.4 1733.6 1344.54 1732.5 C 1345.94 1716.53 1382.46 1531.88 1388.55 1524.28 C 1391.82 1522.14 1394.66 1522.57 1398.66 1522.48 z"/>
<path transform="translate(0,0)" fill="rgb(188,36,92)" d="M 1422.4 1568.77 C 1424.18 1570.97 1436.45 1641.83 1439.66 1652.97 L 1422.75 1653.02 L 1407.03 1652.93 C 1411.56 1624.79 1418.09 1597.41 1422.4 1568.77 z"/>
<path transform="translate(0,0)" fill="rgb(251,250,249)" d="M 994.553 1522.45 C 1003.46 1522.31 1016.58 1521.5 1024.63 1524.13 C 1032.27 1530.98 1029.13 1585.98 1029.2 1599.71 L 1029.41 1654.19 C 1029.41 1665.14 1029.9 1680.75 1027.88 1691.14 C 1025.97 1701.45 1021.21 1711.03 1014.14 1718.78 C 989.25 1745.89 931.974 1745.26 905.993 1719.25 C 899.274 1712.57 894.419 1704.26 891.911 1695.13 C 888.517 1682.53 889.948 1620.37 889.958 1603.5 C 889.92 1591.55 887.283 1531.32 892.61 1524.34 C 897.373 1522.16 936.655 1519.99 938.162 1527.02 C 939.782 1534.57 939.475 1549.06 939.478 1557.18 L 939.328 1635.73 C 939.268 1649.83 939.108 1663.25 939.51 1677.81 C 938.897 1694.92 961.946 1699.76 973.143 1691.59 C 983.133 1684.3 980.111 1652.76 980.102 1641.1 L 980.066 1569.08 C 980.064 1555.87 979.544 1537.44 980.835 1524.71 L 980.997 1523.18 L 994.553 1522.45 z"/>
<path transform="translate(0,0)" fill="rgb(251,250,249)" d="M 798.115 1516.4 C 846.402 1512.39 874.661 1531.96 866.71 1583.72 C 852.733 1584.1 838.254 1583.89 824.231 1583.87 C 823.948 1574.12 824.625 1568.03 816.925 1560.48 C 813.19 1556.82 807.136 1554.54 801.868 1554.88 C 797.27 1555.17 793.003 1557.37 790.102 1560.95 C 783.926 1568.67 783.073 1587.41 792.646 1594.25 C 817.329 1612.18 866.009 1620.29 869.724 1657.07 C 875.126 1710.55 857.152 1733.33 804.78 1739.01 C 801.015 1739.02 797.25 1738.92 793.491 1738.71 C 753.724 1736.59 731.386 1714.48 736.154 1674.51 C 736.501 1671.6 736.496 1670.19 738.822 1668.14 C 747.772 1664.96 770.581 1666.54 780.543 1667.33 C 782.298 1676.22 780.81 1687.79 788.554 1693.94 C 797.089 1700.71 812.64 1698.05 818.845 1689.36 C 825.378 1681.18 823.89 1665.13 815.404 1658.55 C 790.25 1639.12 742.624 1632.81 738.466 1594.69 C 733.259 1546.97 750.133 1521.13 798.115 1516.4 z"/>
<path transform="translate(0,0)" fill="rgb(251,250,249)" d="M 1113.47 1518.37 C 1118.55 1517.85 1125.71 1517.8 1130.83 1518.18 C 1183.17 1522.11 1192.32 1554.85 1188.97 1598.65 C 1174.59 1599.27 1158.28 1598.92 1143.75 1598.9 C 1143.01 1589.26 1144.17 1579.1 1140.07 1570.12 C 1135.93 1561.07 1118.86 1559.47 1111.68 1564.48 C 1107.88 1567.1 1105.32 1571.17 1104.6 1575.73 C 1102.66 1587.45 1103.29 1608.63 1103.59 1622.22 C 1103.93 1637.24 1100.93 1672.78 1107.6 1686.45 C 1114.18 1699.94 1143.25 1697.55 1143.71 1678.53 C 1143.83 1673.58 1144.83 1664.05 1145.24 1658.19 C 1152.41 1657.84 1160.51 1657.9 1167.75 1657.8 C 1175.69 1657.83 1183.63 1657.94 1191.58 1658.12 C 1193.32 1677.49 1192.58 1697.4 1180.55 1713.75 C 1158.81 1743.26 1103.15 1746.15 1074.89 1724.86 C 1048.96 1705.31 1053.24 1667.12 1053.35 1638.17 C 1053.42 1617.76 1051.51 1587.26 1055.6 1567.7 C 1057.56 1557.82 1061.86 1548.54 1068.14 1540.65 C 1079.92 1526.13 1095.53 1520.46 1113.47 1518.37 z"/>
<path transform="translate(0,0)" fill="rgb(251,250,249)" d="M 470.965 1522.43 C 484.719 1521.65 504.363 1522.32 518.598 1522.23 C 534.865 1522.12 557.958 1521.64 573.584 1523.35 C 574.034 1536.9 574.285 1552.4 573.273 1565.86 C 551.975 1566.52 527.385 1565.96 505.839 1565.97 L 505.857 1606.81 C 525.103 1606.2 544.366 1606.32 563.604 1607.17 C 564.371 1620.05 563.829 1634.52 563.576 1647.5 C 546.889 1648.59 522.864 1647.94 505.824 1647.96 C 505.487 1661.54 505.859 1676.45 505.943 1690.13 C 524.969 1690.12 558.968 1689.11 576.268 1690.8 C 577.369 1698.66 578.554 1725.76 574.566 1731.75 C 564.617 1735.17 472.316 1733.84 458.039 1732.68 C 456.64 1710.6 457.665 1677.47 457.667 1654.56 C 457.531 1610.84 457.635 1567.11 457.978 1523.38 L 470.965 1522.43 z"/>
<path transform="translate(0,0)" fill="rgb(251,250,249)" d="M 311.1 1522.44 C 336.604 1521.64 362.573 1522.69 388.123 1522.28 C 402.32 1522.05 416.919 1522.21 431.071 1523.33 C 435.702 1563.24 424.218 1577.61 406.001 1611.39 L 362.915 1689.99 C 382.542 1690.5 417.505 1688.8 435.256 1691.19 C 436.011 1699.71 437.192 1721.77 434.483 1730.33 C 433.687 1732.85 431.487 1732.81 429.25 1733.3 C 412.674 1733.76 320.949 1735.5 309.276 1732.2 C 299.849 1724.82 305.222 1697.55 308.958 1687.85 C 314.541 1673.36 324.057 1657.64 331.584 1643.83 L 373.84 1566.75 C 364.366 1566.81 310.357 1568.85 305.937 1564.32 C 303.729 1558.95 302.74 1532.65 305.286 1526.04 C 306.47 1522.96 308.234 1523.18 311.1 1522.44 z"/>
<path transform="translate(0,0)" fill="rgb(251,250,249)" d="M 604.119 1522.45 C 630.789 1521.57 658.103 1522.71 684.838 1522.18 C 697.057 1521.94 711.009 1521.96 723.103 1523.16 C 724.383 1535.28 723.686 1553.13 723.176 1565.41 C 710.987 1566.19 694.607 1565.89 682.094 1566.01 L 682.091 1705.25 C 681.783 1720.36 688.149 1735.53 665.904 1733.76 C 658.228 1733.15 641.704 1735.51 635.573 1731.09 C 633.038 1723.36 633.913 1679.46 633.911 1668.11 L 633.942 1566.22 C 620.676 1566.18 605.977 1566.42 592.853 1565.58 C 591.901 1557.8 590.639 1530.64 593.821 1523.98 C 596.725 1522.33 600.643 1522.58 604.119 1522.45 z"/>
<path transform="translate(0,0)" fill="rgb(251,250,249)" d="M 1218.25 1523.27 C 1228.63 1522.85 1251.82 1520.91 1259.98 1524.61 C 1264.13 1532.01 1262.06 1669.08 1262.09 1690.26 C 1280.28 1690.11 1309.64 1689.28 1327.31 1690.69 C 1328.22 1698.62 1328.97 1723.88 1326.44 1731.68 C 1325.99 1733.07 1324.75 1732.91 1322.85 1733.43 C 1296.24 1733.95 1269.39 1733.2 1242.76 1733.59 C 1233.7 1733.72 1224.27 1733.95 1215.31 1732.6 C 1213.76 1721.71 1214.22 1707.46 1214.2 1696.1 L 1214.24 1638.78 L 1214.2 1572.8 C 1214.22 1561.69 1212.69 1531.03 1218.25 1523.27 z"/>
<path transform="translate(0,0)" fill="url(#Gradient3)" d="M 813.54 630.497 C 836.778 625.966 866.699 623.421 890.266 625.647 C 888.172 631.614 887.807 632.909 887.162 639.176 C 885.414 658.863 875.361 709.956 904.95 712.345 C 922.818 713.788 953.221 671.338 958.453 656.093 C 960.202 650.689 961.905 645.27 963.561 639.836 C 1003.23 643.444 1036.44 665.249 1060.57 696.715 C 1066.22 701.929 1074.28 715.226 1078.49 721.976 C 1100.94 757.92 1116.55 795.26 1118.4 838.238 C 1120.7 891.675 1100.19 936.113 1064.53 974.954 C 1012.74 1031.36 933.843 1069.92 857.059 1072.82 C 839.43 1073.6 821.77 1072.4 804.406 1069.26 C 755.497 1060.12 678.464 1028.06 641.818 993.524 C 640.734 992.502 638.484 990.321 637.727 988.962 C 618.803 973.956 602.142 946.561 596.309 923.258 C 590.914 901.702 594.674 888.146 605.614 869.859 C 610.085 860.853 626.233 850.754 634.872 846.051 C 635.901 843.148 631.656 837.624 630.134 834.359 C 625.758 824.974 622.309 816.593 621.865 806.124 C 621.361 784.02 621.235 770.456 630.943 749.706 C 651.831 705.063 697.88 666.373 743.341 649.32 C 746.009 658.304 748.095 668.481 750.187 677.694 C 752.586 691.943 759.507 711.153 771.498 720.095 C 779.444 725.906 789.371 728.33 799.102 726.836 C 836.034 721.335 824.849 681.068 819.744 656.807 C 816.585 647.905 815.086 639.772 813.54 630.497 z"/>
<path transform="translate(0,0)" fill="rgb(21,22,24)" d="M 656.258 748.766 C 659.847 747.53 666.261 745.11 669.821 744.702 C 696.506 741.641 715.548 768.826 735.486 781.323 C 741.938 787.493 762.907 803.939 769.984 809.161 C 773.524 805.633 777.03 801.795 780.471 798.146 C 784.14 822.556 786.47 846.738 772.639 868.613 C 763.899 882.697 743.824 895.312 727.446 898.319 C 689.6 905.267 656 879.263 649.638 842.072 C 644.8 813.783 652.03 795.624 667.366 772.934 L 653.022 769.881 C 652.746 769.982 652.469 770.083 652.193 770.185 L 650.822 770.718 C 644.824 772.992 643.347 774.199 638.096 777.735 C 643.337 764.119 645.506 758.976 656.258 748.766 z"/>
<path transform="translate(0,0)" fill="rgb(251,250,249)" d="M 687.492 785.704 C 699.476 791.815 713.765 801.533 724.899 809.125 C 724.238 809.958 723.586 810.798 722.942 811.644 C 709.31 829.635 706.237 851.98 720.365 870.951 C 723.443 875.084 728.006 878.05 728.523 881.889 C 715.75 882.438 701.346 881.41 692.232 871.649 C 669.866 847.692 665.44 810.269 687.492 785.704 z"/>
<path transform="translate(0,0)" fill="rgb(251,250,249)" d="M 753.297 826.451 C 759.134 824.818 765.198 828.19 766.891 834.01 C 768.584 839.829 765.276 845.928 759.475 847.682 C 755.667 848.833 751.535 847.85 748.653 845.108 C 745.772 842.366 744.585 838.288 745.546 834.428 C 746.506 830.568 749.466 827.522 753.297 826.451 z"/>
<path transform="translate(0,0)" fill="rgb(154,86,175)" d="M 621.865 806.124 C 621.361 784.02 621.235 770.456 630.943 749.706 C 651.831 705.063 697.88 666.373 743.341 649.32 C 746.009 658.304 748.095 668.481 750.187 677.694 C 741.963 680.796 732.421 684.417 725.07 689.338 C 736.283 690.673 734.203 696.559 741.143 702.125 C 750.681 708.01 755.827 714.56 763.185 722.775 C 768.366 726.198 772.324 733.265 776.506 738.665 C 775.924 741.109 775.526 741.057 773.6 742.821 C 771.163 763.139 746.992 766.248 732.936 776.036 C 733.674 778.594 734.497 778.465 737.113 780.503 C 736.185 781.409 736.732 781.146 735.486 781.323 C 715.548 768.826 696.506 741.641 669.821 744.702 C 666.261 745.11 659.847 747.53 656.258 748.766 C 645.506 758.976 643.337 764.119 638.096 777.735 C 632.986 789.126 630.834 795.815 622.507 805.375 L 621.865 806.124 z"/>
<path transform="translate(0,0)" fill="rgb(248,108,44)" d="M 621.865 806.124 C 621.361 784.02 621.235 770.456 630.943 749.706 C 651.831 705.063 697.88 666.373 743.341 649.32 C 746.009 658.304 748.095 668.481 750.187 677.694 C 741.963 680.796 732.421 684.417 725.07 689.338 C 705.384 700.23 666.824 729.47 656.258 748.766 C 645.506 758.976 643.337 764.119 638.096 777.735 C 632.986 789.126 630.834 795.815 622.507 805.375 L 621.865 806.124 z"/>
<path transform="translate(0,0)" fill="rgb(146,64,151)" d="M 741.143 702.125 C 750.681 708.01 755.827 714.56 763.185 722.775 C 750.268 717.989 748.709 713.498 741.143 702.125 z"/>
<path transform="translate(0,0)" fill="rgb(248,108,44)" d="M 813.54 630.497 C 836.778 625.966 866.699 623.421 890.266 625.647 C 888.172 631.614 887.807 632.909 887.162 639.176 C 870.093 645.872 839.462 644.295 819.744 656.807 C 816.585 647.905 815.086 639.772 813.54 630.497 z"/>
<path transform="translate(0,0)" fill="rgb(187,122,201)" d="M 963.561 639.836 C 1003.23 643.444 1036.44 665.249 1060.57 696.715 C 1057.75 696.594 1040.08 682.995 1035.71 679.876 C 1020.69 669.132 975.902 652.32 958.453 656.093 C 960.202 650.689 961.905 645.27 963.561 639.836 z"/>
<path transform="translate(0,0)" fill="rgb(248,108,44)" d="M 605.614 869.859 C 607.498 874.97 606.203 884.89 606.414 890.941 C 606.967 906.802 606.813 920.273 612.166 935.295 C 616.334 950.022 619.639 957.509 627.56 970.856 C 629.87 974.75 636.593 985.645 637.727 988.962 C 618.803 973.956 602.142 946.561 596.309 923.258 C 590.914 901.702 594.674 888.146 605.614 869.859 z"/>
<path transform="translate(0,0)" fill="rgb(188,36,92)" d="M 634.872 846.051 C 635.565 850.206 625.452 871.246 622.938 877.205 C 615.501 894.838 617.316 918.711 612.166 935.295 C 606.813 920.273 606.967 906.802 606.414 890.941 C 606.203 884.89 607.498 874.97 605.614 869.859 C 610.085 860.853 626.233 850.754 634.872 846.051 z"/>
<path transform="translate(0,0)" fill="rgb(21,22,24)" d="M 1008.41 710.197 C 1026.39 709.103 1037.48 719.09 1048.61 731.413 C 1034.68 733.592 1014.25 736.042 1002.22 742.698 C 1031.91 766.98 1034.46 807.45 1017.15 839.828 C 1034.58 839.866 1040.28 840.381 1056.09 848.287 C 1038.82 849.805 1011.69 857.401 996.264 864.354 C 972.331 875.141 958.601 885.952 931.751 889.004 C 896.161 886.511 883.905 872.137 870.825 841.443 L 862.339 846.284 C 852.841 831.302 851.051 815.113 849.706 798.014 C 853.066 805.14 856.675 811.845 860.378 818.784 C 895.961 789.875 966.868 716.918 1008.41 710.197 z"/>
<path transform="translate(0,0)" fill="rgb(251,250,249)" d="M 914.777 805.963 C 916.359 809.269 911.823 828 919.952 841.031 C 929.937 857.036 939.659 860.229 956.88 864.996 C 945.201 869.408 940.479 871.083 928.187 872.192 C 903.181 869.128 887.843 855.045 885.545 829.582 C 895.195 821.594 904.94 813.72 914.777 805.963 z"/>
<path transform="translate(0,0)" fill="rgb(251,250,249)" d="M 985.127 759.633 C 1004.64 767.821 1001.73 804.458 976.615 810.004 C 965.874 807.885 959.053 800.88 961.461 789.276 C 964.372 775.243 974.109 767.484 985.127 759.633 z"/>
<path transform="translate(0,0)" fill="rgb(21,22,24)" d="M 973.271 901.127 C 999.56 899.103 1012.12 904.713 1021.13 930.173 C 1013.35 926.372 1009.38 925.002 1001.14 922.837 C 988.27 986.569 934.583 1030.9 871.668 1043.67 C 835.855 1050.93 800.045 1039.81 773.526 1015.46 C 765.293 1007.9 754.101 997.183 744.96 990.839 L 743.761 990.02 C 721.943 975.823 696.449 976.345 684.262 953.249 C 681.965 948.895 679.547 940.446 681.117 935.543 L 682.531 935.472 C 695.172 953.539 711.911 956.162 733.08 960.795 C 782.806 971.68 844.656 969.127 892.685 953.422 C 914.619 946.25 940.866 932.142 960.124 919.954 C 953.992 915.566 950.079 913.658 943.322 910.365 C 953.488 906.97 962.856 903.745 973.271 901.127 z"/>
<path transform="translate(0,0)" fill="rgb(248,108,44)" d="M 958.747 952.987 C 960.399 953.3 959.641 952.896 960.845 954.482 C 958.777 978.701 932.753 1000.87 912.788 1011.71 C 885.113 1027.02 852.518 1030.8 822.076 1022.22 L 813.607 1019.07 C 865.103 975.726 899.27 977.289 958.747 952.987 z"/>
<path transform="translate(0,0)" fill="rgb(89,51,140)" d="M 1616.74 504.866 L 1617.79 502.749 C 1632.69 500.331 1648.9 532.366 1653.79 543.471 C 1692.83 632.03 1692.99 740.577 1649.57 827.867 C 1622.36 884.022 1588.56 919.984 1532.11 948.756 C 1475.98 977.369 1422.66 983.382 1360.97 969.127 C 1358.99 968.942 1357.03 968.705 1355.07 968.416 C 1304.44 960.824 1245.46 918.333 1215.35 877.186 C 1244.04 886.506 1263.04 902.598 1295.23 893.101 C 1321.28 885.393 1342.44 862.413 1353.89 838.469 C 1361.05 823.485 1366.04 806.081 1374.33 791.781 C 1365.93 789.807 1348.49 786.152 1341.71 782.495 C 1372.14 777.207 1382.26 768.255 1413.24 774.697 C 1423.75 767.291 1434.09 756.809 1443.99 748.243 C 1466.91 728.409 1491.18 713.353 1519.96 703.84 C 1519.65 682.083 1520.7 661.445 1531.38 641.945 C 1543.42 619.948 1555.48 615.194 1577.54 608.419 C 1592.17 576.242 1602.98 538.344 1616.74 504.866 z"/>
<path transform="translate(0,0)" fill="rgb(248,108,44)" d="M 1616.74 504.866 C 1618.9 510.945 1620.74 525.91 1620.98 532.672 C 1624.73 638.235 1545.06 747.679 1447.11 783.348 C 1422.03 792.481 1400.05 793.006 1374.33 791.781 C 1365.93 789.807 1348.49 786.152 1341.71 782.495 C 1372.14 777.207 1382.26 768.255 1413.24 774.697 C 1423.75 767.291 1434.09 756.809 1443.99 748.243 C 1466.91 728.409 1491.18 713.353 1519.96 703.84 C 1519.65 682.083 1520.7 661.445 1531.38 641.945 C 1543.42 619.948 1555.48 615.194 1577.54 608.419 C 1592.17 576.242 1602.98 538.344 1616.74 504.866 z"/>
<path transform="translate(0,0)" fill="rgb(26,119,167)" d="M 1318.72 937.18 C 1326.79 938.582 1337.09 942.173 1345.36 944.354 C 1358.26 947.693 1371.39 950.033 1384.65 951.354 C 1415.98 954.399 1441.57 952.938 1472.49 945.893 C 1489.3 942.063 1500.18 936.653 1515.32 930.388 C 1557.16 913.063 1590.83 889.274 1621.41 855.872 C 1628.32 848.327 1638.18 835.821 1645.98 828.636 C 1647.17 828.38 1648.37 828.124 1649.57 827.867 C 1622.36 884.022 1588.56 919.984 1532.11 948.756 C 1475.98 977.369 1422.66 983.382 1360.97 969.127 C 1339.44 954.901 1338.22 959.438 1318.72 937.18 z"/>
<path transform="translate(0,0)" fill="rgb(15,142,166)" d="M 1187.21 829.062 C 1184.03 823.414 1181.27 812.691 1179.54 806.414 C 1169.09 768.304 1170.21 724.023 1177.31 685.153 C 1195.26 586.812 1263.5 493.441 1344.96 437.19 C 1381.34 412.068 1425.99 391.124 1471.15 390.022 C 1478.96 389.831 1494.95 393.164 1503.04 394.666 C 1495.52 399.527 1489.09 403.169 1481.21 407.494 L 1480.16 408.482 C 1467.4 420.298 1447.98 431.833 1437.09 442.093 C 1387.63 488.705 1339.28 559.008 1337.2 629.26 C 1336.24 661.749 1340.61 695.579 1354.58 724.877 C 1356.72 730.345 1358.68 735.268 1361.08 740.639 C 1339.93 758.943 1335.43 764.21 1309.01 773.055 C 1320.3 777.285 1329.78 780.463 1341.71 782.495 C 1348.49 786.152 1365.93 789.807 1374.33 791.781 C 1366.04 806.081 1361.05 823.485 1353.89 838.469 C 1342.44 862.413 1321.28 885.393 1295.23 893.101 C 1263.04 902.598 1244.04 886.506 1215.35 877.186 C 1206.17 867.117 1190.15 841.97 1187.21 829.062 z"/>
<path transform="translate(0,0)" fill="rgb(252,190,26)" d="M 1187.21 829.062 C 1184.03 823.414 1181.27 812.691 1179.54 806.414 C 1169.09 768.304 1170.21 724.023 1177.31 685.153 C 1195.26 586.812 1263.5 493.441 1344.96 437.19 C 1381.34 412.068 1425.99 391.124 1471.15 390.022 C 1478.96 389.831 1494.95 393.164 1503.04 394.666 C 1495.52 399.527 1489.09 403.169 1481.21 407.494 C 1402.75 417.175 1314.43 493.785 1267.74 556.09 C 1216.5 624.481 1173.73 715.54 1183.53 803.654 C 1184.09 808.777 1187.57 825.707 1187.21 829.062 z"/>
<path transform="translate(0,0)" fill="rgb(15,142,166)" d="M 1676.36 1317.92 C 1683.93 1294.5 1697.2 1271.26 1704.98 1247.23 C 1743.29 1128.88 1758.7 995.181 1732.9 872.582 C 1730.64 861.884 1726.95 847.949 1727.02 836.814 C 1727.16 815.399 1742.15 793.593 1745.7 772.326 C 1748.29 759.857 1752.07 723.125 1756.54 716.1 C 1759.93 714.395 1758.22 714.643 1761.8 715.086 C 1777.54 725.255 1800.97 818.207 1805.55 839.566 C 1839.91 1000.54 1823.43 1168.21 1758.38 1319.41 C 1743.73 1353.18 1728.15 1384.82 1707.8 1415.61 C 1704.1 1421.2 1700.07 1427.23 1696.53 1432.89 C 1683.89 1432.61 1615.9 1434.18 1609.2 1431.97 C 1614.07 1422.73 1634.56 1394.83 1641.81 1384.33 C 1644.09 1381.37 1658.52 1369.7 1663.18 1363.85 C 1676.08 1347.65 1677.39 1337.23 1676.36 1317.92 z"/>
<path transform="translate(0,0)" fill="url(#Gradient2)" d="M 444.968 1110.63 C 475.757 1107.93 514.106 1119.52 535.757 1142.29 C 543.235 1149.32 546.582 1153.49 551.871 1162.35 C 560.028 1182.24 557.706 1205.14 542.614 1221.09 C 538.385 1225.8 530.26 1238.14 524.85 1229.9 C 515.439 1218.31 508.432 1207.34 496.61 1198.35 C 505.197 1266.16 494.985 1322.91 537.028 1381.72 C 548.851 1398.27 562.985 1413.04 578.999 1425.59 C 585.636 1430.73 593.213 1436.52 600.225 1441.05 C 565.561 1445.95 550.886 1444.79 516.425 1434.12 C 511.595 1432.62 498.844 1428.52 494.815 1426.34 C 477.523 1420.46 448.991 1402.48 435.072 1390.82 C 394.037 1356.34 365.426 1313.75 360.519 1258.95 C 356.538 1214.49 372.784 1162.2 399.688 1126.06 C 406.721 1116.61 433.279 1111.42 444.968 1110.63 z"/>
<path transform="translate(0,0)" fill="rgb(248,108,44)" d="M 494.815 1426.34 C 477.523 1420.46 448.991 1402.48 435.072 1390.82 C 394.037 1356.34 365.426 1313.75 360.519 1258.95 C 356.538 1214.49 372.784 1162.2 399.688 1126.06 C 406.721 1116.61 433.279 1111.42 444.968 1110.63 C 442.885 1118.51 416.134 1136.35 408.476 1142.74 C 417.378 1147.34 421.993 1150.87 425.647 1161.62 C 431.782 1179.68 421.684 1214.14 402.594 1221.38 C 394.247 1224.54 385.667 1215.34 380.297 1209.48 C 377.708 1274.5 401.094 1337.87 445.295 1385.62 C 455.76 1396.78 464.492 1404.15 476.88 1413.11 C 480.435 1415.67 493.541 1423.99 494.815 1426.34 z"/>
<path transform="translate(0,0)" fill="rgb(89,51,140)" d="M 535.757 1142.29 C 543.235 1149.32 546.582 1153.49 551.871 1162.35 C 560.028 1182.24 557.706 1205.14 542.614 1221.09 C 538.385 1225.8 530.26 1238.14 524.85 1229.9 C 540.476 1217.14 537.109 1160.64 535.757 1142.29 z"/>
<path transform="translate(0,0)" fill="rgb(19,87,150)" d="M 542.614 1221.09 C 542.63 1216.19 545.28 1208.51 545.862 1202.86 C 547.426 1187.67 545.79 1176.68 551.871 1162.35 C 560.028 1182.24 557.706 1205.14 542.614 1221.09 z"/>
<path transform="translate(0,0)" fill="rgb(252,190,26)" d="M 1047.23 1039.88 C 1050.4 1037.37 1055 1032.59 1058.11 1032.53 C 1059.73 1034.97 1059.72 1036.85 1060.14 1039.75 C 1062.16 1052.29 1065.32 1067.47 1069.89 1079.31 C 1078.44 1101.45 1072.7 1112.55 1059.7 1130.99 C 1033.99 1164.93 978.549 1190.38 936.941 1198.34 C 935.917 1198.53 935.185 1198.36 934.085 1198.27 C 918.509 1204.47 899.651 1207.27 882.936 1207.86 C 809.444 1210.42 724.235 1202.81 719.725 1111.44 C 719.505 1098.66 719.887 1084.75 719.997 1071.88 C 759.308 1090.42 803.617 1103.01 847.062 1106.32 C 863.492 1107.57 879.537 1106.31 895.995 1106.18 C 941.831 1098.08 993.571 1077.73 1032.24 1051.64 C 1037.03 1047.48 1042.17 1043.72 1047.23 1039.88 z"/>
<path transform="translate(0,0)" fill="rgb(26,119,167)" d="M 1047.23 1039.88 C 1050.4 1037.37 1055 1032.59 1058.11 1032.53 C 1059.73 1034.97 1059.72 1036.85 1060.14 1039.75 C 1062.16 1052.29 1065.32 1067.47 1069.89 1079.31 C 1078.44 1101.45 1072.7 1112.55 1059.7 1130.99 C 1033.99 1164.93 978.549 1190.38 936.941 1198.34 C 935.917 1198.53 935.185 1198.36 934.085 1198.27 C 956.52 1176.25 969.589 1145.46 995.281 1118.61 C 947.035 1148.29 896.158 1146.31 841.487 1146.18 C 859.376 1127.06 873.711 1118.92 895.995 1106.18 C 941.831 1098.08 993.571 1077.73 1032.24 1051.64 C 1037.03 1047.48 1042.17 1043.72 1047.23 1039.88 z"/>
<path transform="translate(0,0)" fill="rgb(89,51,140)" d="M 1047.23 1039.88 C 1050.4 1037.37 1055 1032.59 1058.11 1032.53 C 1059.73 1034.97 1059.72 1036.85 1060.14 1039.75 C 1062.16 1052.29 1065.32 1067.47 1069.89 1079.31 C 1078.44 1101.45 1072.7 1112.55 1059.7 1130.99 C 1058.5 1121.46 1064.15 1114.95 1063.91 1104.09 C 1063.42 1082.63 1046.74 1065.41 1032.24 1051.64 C 1037.03 1047.48 1042.17 1043.72 1047.23 1039.88 z"/>
<path transform="translate(0,0)" fill="rgb(249,147,21)" d="M 719.997 1071.88 C 759.308 1090.42 803.617 1103.01 847.062 1106.32 C 863.492 1107.57 879.537 1106.31 895.995 1106.18 C 873.711 1118.92 859.376 1127.06 841.487 1146.18 C 817.769 1150.29 740.787 1123.99 719.725 1111.44 C 719.505 1098.66 719.887 1084.75 719.997 1071.88 z"/>
<path transform="translate(0,0)" fill="rgb(249,147,21)" d="M 767.511 1222.5 C 839.79 1244.47 925.351 1236.37 993.759 1206.31 C 1012.43 1198.1 1031 1187.35 1047.42 1180.35 C 1050.59 1216.29 1061.33 1241.57 1082.94 1270.09 C 1013.04 1317.79 929.281 1342.74 844.985 1326.72 C 839.278 1325.64 828.964 1323.31 823.894 1320.59 C 811.465 1316.78 799.881 1310.63 789.772 1302.46 C 761.968 1279.71 754.814 1250.74 751.606 1216.98 L 767.511 1222.5 z"/>
<path transform="translate(0,0)" fill="rgb(252,190,26)" d="M 751.606 1216.98 L 767.511 1222.5 C 769.835 1254.85 822.315 1309.93 823.894 1320.59 C 811.465 1316.78 799.881 1310.63 789.772 1302.46 C 761.968 1279.71 754.814 1250.74 751.606 1216.98 z"/>
<path transform="translate(0,0)" fill="rgb(249,147,21)" d="M 1097.67 1290.5 C 1124.78 1322.2 1136.85 1328.42 1169.96 1351.96 C 1121.32 1397.93 1059.9 1427.91 991.858 1425.88 C 963.127 1425.08 934.746 1419.36 907.952 1408.96 C 875.47 1396.33 844.766 1375.03 823.515 1347.26 C 837.112 1350.05 850.761 1352.58 864.453 1354.85 C 936.25 1362.8 1011.16 1343.72 1071.87 1306.24 C 1080.33 1301.02 1089.1 1295.41 1097.67 1290.5 z"/>
<path transform="translate(0,0)" fill="rgb(252,190,26)" d="M 823.515 1347.26 C 837.112 1350.05 850.761 1352.58 864.453 1354.85 C 876.631 1373.07 890.113 1386.13 905.642 1401.46 C 908.286 1404.07 909.321 1405.45 907.952 1408.96 C 875.47 1396.33 844.766 1375.03 823.515 1347.26 z"/>
<path transform="translate(0,0)" fill="rgb(15,142,166)" d="M 1416.04 1230.3 C 1424.68 1196.17 1432.5 1162.9 1452.37 1133.08 C 1475.22 1098.79 1540.08 1056.67 1579.99 1085.14 C 1600.59 1100.67 1599.05 1145.83 1577.6 1161.37 C 1574.2 1163.83 1558.51 1168.59 1553.37 1170.48 C 1539.32 1175.63 1525.77 1182.04 1512.87 1189.63 C 1475.05 1212.33 1468.31 1227.54 1441.07 1257.4 C 1436.99 1250.42 1434.92 1246.98 1429.4 1240.9 L 1416.04 1230.3 z"/>
<path transform="translate(0,0)" fill="rgb(249,147,21)" d="M 1416.04 1230.3 C 1424.68 1196.17 1432.5 1162.9 1452.37 1133.08 C 1475.22 1098.79 1540.08 1056.67 1579.99 1085.14 C 1508.48 1094.68 1461.07 1156.01 1436.51 1219.1 C 1433.75 1226.21 1430.62 1233.34 1429.4 1240.9 L 1416.04 1230.3 z"/>
<path transform="translate(0,0)" fill="rgb(89,51,140)" d="M 1202.5 915.665 C 1206.88 919.707 1210.75 924.497 1214.66 929.036 C 1223.36 936.792 1231.41 945.097 1240.15 952.828 C 1262.11 972.254 1281.61 983.064 1308.04 994.697 C 1324.14 1002.02 1344.05 1006.59 1356.2 1012.79 C 1334.43 1043.57 1295.38 1060.58 1258 1055.04 L 1256.01 1054.76 L 1254.83 1054.57 C 1251.24 1053.79 1247.67 1052.94 1244.12 1052.04 C 1220.23 1045.85 1203.39 1026.5 1191.31 1006.1 C 1179.98 975.363 1178.76 940.764 1202.5 915.665 z"/>
<path transform="translate(0,0)" fill="rgb(19,87,150)" d="M 1308.04 994.697 C 1324.14 1002.02 1344.05 1006.59 1356.2 1012.79 C 1334.43 1043.57 1295.38 1060.58 1258 1055.04 L 1256.01 1054.76 L 1254.83 1054.57 C 1257.74 1050.9 1265.82 1044.4 1269.85 1041.6 C 1284.95 1031.16 1301.89 1012.25 1308.04 994.697 z"/>
<path transform="translate(0,0)" fill="rgb(248,108,44)" d="M 1202.5 915.665 C 1206.88 919.707 1210.75 924.497 1214.66 929.036 C 1214.4 959.678 1202.24 976.687 1191.31 1006.1 C 1179.98 975.363 1178.76 940.764 1202.5 915.665 z"/>
<path transform="translate(0,0)" fill="rgb(89,51,140)" d="M 1461.56 1277.65 C 1464.48 1272.2 1479.95 1252.34 1484.57 1247.07 C 1510.36 1217.65 1558.78 1190.47 1598.3 1188.2 C 1616.02 1187.18 1624.06 1190.19 1636.83 1201.6 C 1638.99 1205.22 1638.79 1207.75 1637.79 1211.81 C 1631.36 1237.25 1614.8 1258.95 1591.97 1271.87 C 1559.21 1290.79 1492.89 1306.27 1456.58 1290.99 C 1457.88 1286.43 1458.87 1281.41 1461.56 1277.65 z"/>
<path transform="translate(0,0)" fill="url(#Gradient1)" d="M 1461.56 1277.65 C 1464.48 1272.2 1479.95 1252.34 1484.57 1247.07 C 1510.36 1217.65 1558.78 1190.47 1598.3 1188.2 C 1616.02 1187.18 1624.06 1190.19 1636.83 1201.6 C 1597.52 1210.33 1565 1219.27 1528.26 1237.08 C 1516.28 1242.88 1504.64 1252.07 1491.92 1256.9 C 1485.46 1259.35 1465.4 1276.13 1461.56 1277.65 z"/>
<path transform="translate(0,0)" fill="rgb(89,51,140)" d="M 1204.68 1171.53 C 1238.83 1181.15 1251.68 1197.72 1249.7 1233.81 C 1245.23 1278.49 1229.35 1302.91 1199.03 1333.58 C 1167.65 1318.89 1144.06 1299.39 1120.47 1274.52 C 1154.04 1251.87 1176.85 1234.56 1195.51 1197.17 C 1199.25 1188.51 1202.65 1180.79 1204.68 1171.53 z"/>
<path transform="translate(0,0)" fill="rgb(248,108,44)" d="M 1204.68 1171.53 C 1238.83 1181.15 1251.68 1197.72 1249.7 1233.81 C 1241.35 1233.52 1237.5 1228.66 1231.8 1223.07 C 1219.99 1211.49 1211.35 1202.62 1195.51 1197.17 C 1199.25 1188.51 1202.65 1180.79 1204.68 1171.53 z"/>
<path transform="translate(0,0)" fill="rgb(19,87,150)" d="M 589.722 1179.05 C 622.993 1190.75 650.166 1215.32 665.128 1247.26 C 677.495 1273.72 678.068 1299.78 672.661 1328.08 C 666.039 1347.8 663.507 1353.65 650.876 1370.05 C 649.056 1359.01 646.954 1344.68 643.125 1334.42 C 628.578 1295.42 593.932 1270.55 564.013 1244.96 C 576.051 1229.53 580.501 1216.8 584.974 1197.65 L 589.722 1179.05 z"/>
<path transform="translate(0,0)" fill="rgb(89,51,140)" d="M 589.722 1179.05 C 622.993 1190.75 650.166 1215.32 665.128 1247.26 C 677.495 1273.72 678.068 1299.78 672.661 1328.08 C 667.671 1320.43 669.741 1306.21 667.786 1297.1 C 663.207 1275.69 657.557 1255.7 644.025 1237.98 C 628.757 1217.99 603.937 1211.9 584.974 1197.65 L 589.722 1179.05 z"/>
<path transform="translate(0,0)" fill="rgb(89,51,140)" d="M 1440.87 510.751 C 1449.83 530.452 1452.57 551.938 1444.88 572.604 C 1436.99 593.825 1415.23 604.755 1398.95 621.724 C 1412.25 637.725 1413.53 644.927 1411.92 665.106 C 1408.97 702.077 1387.3 718.935 1361.08 740.639 C 1358.68 735.268 1356.72 730.345 1354.58 724.877 C 1357.64 717.699 1350.74 663.031 1357.15 642.977 C 1373.42 592.114 1402.16 546.904 1440.87 510.751 z"/>
<path transform="translate(0,0)" fill="rgb(89,51,140)" d="M 1100.64 1120.44 C 1132.02 1141.12 1146.25 1140.23 1182.2 1138.7 C 1182.39 1175.7 1162.46 1209.9 1135.11 1233.75 C 1124.71 1242.78 1116.55 1247.86 1104.74 1254.87 C 1084.16 1227.59 1076.38 1199.5 1069.61 1167.05 C 1084.85 1148.83 1089.95 1141.63 1100.64 1120.44 z"/>
<path transform="translate(0,0)" fill="rgb(89,51,140)" d="M 1273.58 1247.05 C 1273.75 1241.68 1272.91 1223.91 1275.81 1221.76 C 1286.27 1214.04 1309.04 1232.17 1314.5 1240.21 C 1320.42 1248.93 1322.99 1254.69 1324.55 1263.67 C 1330.17 1283.94 1327.8 1316.01 1317.43 1334.7 C 1309.06 1349.76 1295.84 1354.76 1280.42 1359.01 C 1272.73 1355.61 1264.28 1349.22 1256.74 1344.94 C 1248.77 1340.41 1241.37 1337.4 1232.95 1333.87 C 1247.27 1318.14 1262.59 1290.59 1268.61 1270.07 C 1270.27 1264.4 1272.16 1253.52 1273.58 1247.05 z"/>
<path transform="translate(0,0)" fill="rgb(249,147,21)" d="M 1273.58 1247.05 C 1273.75 1241.68 1272.91 1223.91 1275.81 1221.76 C 1286.27 1214.04 1309.04 1232.17 1314.5 1240.21 C 1320.42 1248.93 1322.99 1254.69 1324.55 1263.67 C 1323.79 1263.53 1310.99 1257.8 1308.98 1257.03 C 1296.82 1252.35 1286.47 1249.02 1273.58 1247.05 z"/>
<path transform="translate(0,0)" fill="rgb(89,51,140)" d="M 1457.05 1322.81 C 1492.44 1326.1 1520.41 1327.64 1555.07 1317.86 C 1576.54 1311.81 1599.24 1304.52 1620.75 1313.78 C 1646.96 1325.19 1643.82 1338.83 1622.74 1352.99 C 1600.65 1367.67 1587.69 1372.5 1560.41 1373.37 C 1526.21 1374.47 1495.73 1363.13 1470.86 1339.25 C 1465.25 1333.66 1461.54 1329.46 1457.05 1322.81 z"/>
<path transform="translate(0,0)" fill="rgb(19,87,150)" d="M 1470.86 1339.25 C 1471.76 1338.93 1472.65 1338.62 1473.54 1338.3 C 1485.6 1340.86 1503.27 1346.36 1514.93 1348.82 C 1541.4 1354.41 1569.93 1358.24 1596.79 1354.94 C 1603.63 1354.1 1614.86 1349.35 1619.7 1350.67 L 1622.74 1352.99 C 1600.65 1367.67 1587.69 1372.5 1560.41 1373.37 C 1526.21 1374.47 1495.73 1363.13 1470.86 1339.25 z"/>
<path transform="translate(0,0)" fill="rgb(252,190,26)" d="M 1009.33 369.009 C 1012.24 366.776 1012.85 365.915 1016.53 365.704 C 1018.39 370.484 1014.17 371.664 1016.58 374.008 C 981.89 450.171 961.021 517.006 945.824 599.354 C 941.344 624.445 938.879 649.981 934.217 675.028 C 931.844 687.773 926.137 701.323 910.727 697.527 C 904.341 689.983 911.913 647.409 913.905 636.266 C 928.369 555.352 950.523 474.538 989.859 401.91 C 995.346 391.78 1002.49 378.103 1009.33 369.009 z"/>
<path transform="translate(0,0)" fill="rgb(89,51,140)" d="M 1216.19 1361.54 C 1254.23 1349.36 1289.11 1399.11 1296.38 1429.85 C 1298.75 1439.88 1305.78 1463.86 1298.77 1472.57 C 1295.45 1473.22 1292.05 1471.55 1288.79 1470.23 C 1282.79 1467 1277.07 1463.25 1271.15 1459.96 C 1239.53 1442.4 1168.93 1403.6 1216.19 1361.54 z"/>
<path transform="translate(0,0)" fill="rgb(19,87,150)" d="M 1288.79 1470.23 C 1282.79 1467 1277.07 1463.25 1271.15 1459.96 C 1239.53 1442.4 1168.93 1403.6 1216.19 1361.54 C 1217.39 1374.05 1216.62 1376.87 1219.27 1389.8 C 1225.19 1418.58 1285.17 1451.44 1288.79 1470.23 z"/>
<path transform="translate(0,0)" fill="rgb(89,51,140)" d="M 1347.45 1247.35 C 1364.05 1246.69 1373.74 1246 1389.69 1251.17 C 1397.28 1253.21 1404.13 1258.32 1410.03 1263.47 C 1429.16 1284 1434.57 1311.52 1411.27 1331.94 C 1400.89 1340.93 1387.26 1345.25 1373.59 1343.88 C 1362.26 1342.83 1354.05 1339.31 1344.18 1334.08 C 1353.83 1314.31 1353.11 1293.92 1351.49 1272.19 L 1349.85 1261.81 L 1347.45 1247.35 z"/>
<path transform="translate(0,0)" fill="rgb(248,108,44)" d="M 1347.45 1247.35 C 1364.05 1246.69 1373.74 1246 1389.69 1251.17 C 1397.28 1253.21 1404.13 1258.32 1410.03 1263.47 C 1390.7 1268.81 1371.41 1270.5 1351.49 1272.19 L 1349.85 1261.81 L 1347.45 1247.35 z"/>
<path transform="translate(0,0)" fill="rgb(249,147,21)" d="M 1347.45 1247.35 C 1364.05 1246.69 1373.74 1246 1389.69 1251.17 C 1380.1 1255.68 1365.1 1251.6 1349.85 1261.81 L 1347.45 1247.35 z"/>
<path transform="translate(0,0)" fill="rgb(89,51,140)" d="M 554.961 1024.64 C 585.865 1021.21 596.943 1023.63 625.403 1035.83 C 639.206 1041.64 644.07 1046.49 655.507 1052.37 C 679.701 1065.52 685.613 1090.59 684.856 1116.14 C 668.854 1111.64 652.44 1108.31 635.774 1107.76 C 626.681 1107.11 613.096 1108.28 604.02 1109.17 C 604.158 1086.08 600.925 1074.79 588.849 1055.25 C 575.968 1039.56 572.006 1035.52 554.961 1024.64 z"/>
<path transform="translate(0,0)" fill="rgb(19,87,150)" d="M 655.507 1052.37 C 679.701 1065.52 685.613 1090.59 684.856 1116.14 C 668.854 1111.64 652.44 1108.31 635.774 1107.76 C 638.142 1101.14 642.697 1099.21 648.633 1095.55 C 648.143 1087.63 646.43 1070.09 647.374 1063.14 C 649.872 1057.78 651.221 1056.46 655.507 1052.37 z"/>
<path transform="translate(0,0)" fill="rgb(248,108,44)" d="M 554.961 1024.64 C 585.865 1021.21 596.943 1023.63 625.403 1035.83 C 625.738 1039.67 626.412 1045.34 626.28 1049.03 C 615.248 1052.49 603.491 1046.58 588.849 1055.25 C 575.968 1039.56 572.006 1035.52 554.961 1024.64 z"/>
<path transform="translate(0,0)" fill="rgb(146,64,151)" d="M 625.403 1035.83 C 639.206 1041.64 644.07 1046.49 655.507 1052.37 C 651.221 1056.46 649.872 1057.78 647.374 1063.14 C 642.042 1061.92 638.083 1045.73 626.28 1049.03 C 626.412 1045.34 625.738 1039.67 625.403 1035.83 z"/>
<path transform="translate(0,0)" fill="rgb(252,190,26)" d="M 774.884 396.037 L 777.037 394.818 C 777.515 392.403 777.471 392.024 778.561 389.85 C 781.855 389.745 780.521 389.216 782.828 391.091 C 782.021 395.815 781.535 394.428 783.458 397.869 C 773.895 456.943 774.197 517.579 780.669 577.004 C 783.213 600.367 802.917 677.276 799.749 692.352 C 798.939 696.205 796.641 698.781 793.263 700.675 C 791.11 701.881 788.605 702.648 786.21 701.696 C 782.461 700.205 780.02 695.936 778.437 692.44 C 771.472 677.059 769.812 657.846 767.172 641.217 C 755.397 567.033 749.477 467.813 774.884 396.037 z"/>
<path transform="translate(0,0)" fill="rgb(249,147,21)" d="M 1178.88 1379.13 C 1180.12 1380.67 1178.23 1387.09 1178.44 1389.51 C 1179.31 1399.74 1182.75 1410.51 1184.81 1420.9 C 1152.59 1444.61 1100.15 1453.63 1060.52 1453.93 C 1049.24 1454.02 1031.53 1452.35 1019.75 1451.56 C 1016.12 1451.28 1011.72 1451.47 1009.01 1449.61 C 1015.01 1447.62 1024.19 1448.04 1030.83 1447.18 C 1070.44 1442.04 1110.88 1427.74 1143.87 1405.17 C 1156 1396.86 1166.75 1387.34 1178.88 1379.13 z"/>
<path transform="translate(0,0)" fill="rgb(19,87,150)" d="M 1325.86 1365.99 C 1374.82 1363.03 1400.9 1396.9 1418.71 1437.85 C 1418.98 1438.19 1420.59 1441.38 1420.91 1442 L 1420.25 1444.04 C 1412.73 1443.44 1364.65 1413.18 1354.03 1407.59 C 1342.46 1401.51 1315.77 1383.55 1307.01 1374.51 C 1314.19 1369.72 1317.91 1368.33 1325.86 1365.99 z"/>
<path transform="translate(0,0)" fill="rgb(89,51,140)" d="M 1325.86 1365.99 C 1374.82 1363.03 1400.9 1396.9 1418.71 1437.85 C 1416.55 1437.39 1416.53 1437.45 1414.63 1435.47 C 1407.96 1427.5 1395.82 1422.18 1388.69 1415.32 C 1371.59 1398.89 1341.06 1382.9 1325.86 1365.99 z"/>
<path transform="translate(0,0)" fill="rgb(89,51,140)" d="M 518.754 1048.29 C 524.08 1049.42 526.568 1049.87 531.708 1052.02 C 562.849 1064.48 576.433 1100.35 569.445 1131.87 C 559.837 1122.66 552.054 1115.14 540.807 1107.68 C 538.373 1106.07 523.827 1097.23 523.196 1096.44 C 512.59 1091.93 504.191 1089 493.091 1086.14 C 498.806 1073.52 515.628 1056.82 518.754 1048.29 z"/>
<path transform="translate(0,0)" fill="rgb(146,64,151)" d="M 518.754 1048.29 C 524.08 1049.42 526.568 1049.87 531.708 1052.02 C 531.327 1063.46 530.251 1066.32 526.678 1077.37 C 528.39 1078.86 527.632 1078.41 529.943 1078.93 C 531.134 1081.96 529.742 1093.31 529.314 1097.08 C 527.267 1096.67 525.024 1095.9 523.196 1096.44 C 512.59 1091.93 504.191 1089 493.091 1086.14 C 498.806 1073.52 515.628 1056.82 518.754 1048.29 z"/>
<path transform="translate(0,0)" fill="rgb(89,51,140)" d="M 782.125 1361.61 C 785.356 1361.37 785.791 1362.31 788.201 1364.66 C 795.359 1371.09 804.06 1379.66 811.737 1384.94 C 805.687 1390.07 797.066 1397.51 790.482 1401.92 C 778.265 1411.9 768.639 1425.27 755.562 1434.11 C 748.296 1439.02 742.434 1443.09 735.958 1449.06 C 736.283 1440.96 736.687 1434.05 737.502 1425.99 C 741.408 1399.9 756.543 1371.69 782.125 1361.61 z"/>
<path transform="translate(0,0)" fill="rgb(248,108,44)" d="M 782.125 1361.61 C 773.121 1378.19 754.371 1422.24 737.502 1425.99 C 741.408 1399.9 756.543 1371.69 782.125 1361.61 z"/>
<path transform="translate(0,0)" fill="rgb(19,87,150)" d="M 788.201 1364.66 C 795.359 1371.09 804.06 1379.66 811.737 1384.94 C 805.687 1390.07 797.066 1397.51 790.482 1401.92 C 791.334 1391.79 787.901 1376.98 788.201 1364.66 z"/>
<path transform="translate(0,0)" fill="rgb(249,147,21)" d="M 1096.3 1038.3 C 1093.7 1003.42 1116.92 953.24 1153.4 944.634 C 1134.94 970.147 1127.55 993.981 1128.03 1025.84 C 1128.94 1034.46 1129.83 1043.63 1132.73 1051.86 C 1120.19 1058.99 1113.36 1055.13 1099.44 1054.9 C 1097.79 1048.82 1097.21 1044.52 1096.3 1038.3 z"/>
<path transform="translate(0,0)" fill="rgb(146,64,151)" d="M 1128.03 1025.84 C 1128.94 1034.46 1129.83 1043.63 1132.73 1051.86 C 1120.19 1058.99 1113.36 1055.13 1099.44 1054.9 C 1097.79 1048.82 1097.21 1044.52 1096.3 1038.3 C 1108.83 1034.81 1116.32 1031.55 1128.03 1025.84 z"/>
<path transform="translate(0,0)" fill="rgb(89,51,140)" d="M 1167.85 1018.76 C 1182.54 1042.78 1186.82 1050.22 1210.04 1067.22 C 1215.66 1070.21 1221.33 1073.13 1227.04 1075.97 C 1217.68 1082.02 1212.24 1085.64 1200.67 1086.55 C 1177.46 1088.13 1157.77 1051.71 1153.36 1032.26 C 1158.01 1027.52 1162.9 1023.18 1167.85 1018.76 z"/>
<path transform="translate(0,0)" fill="rgb(26,119,167)" d="M 1200.67 1086.55 L 1199.67 1085.94 L 1199.27 1084.07 C 1201.67 1077.57 1205.64 1072.5 1210.04 1067.22 C 1215.66 1070.21 1221.33 1073.13 1227.04 1075.97 C 1217.68 1082.02 1212.24 1085.64 1200.67 1086.55 z"/>
<path transform="translate(0,0)" fill="rgb(248,108,44)" d="M 483.283 1051.34 C 495.098 1047.21 506.467 1047.7 518.754 1048.29 C 515.628 1056.82 498.806 1073.52 493.091 1086.14 C 485.217 1084.08 478.303 1083.98 470.244 1083.89 L 433.168 1083.98 C 447.522 1066.78 462.454 1058.63 483.283 1051.34 z"/>
<path transform="translate(0,0)" fill="rgb(249,147,21)" d="M 483.283 1051.34 C 485.239 1058.78 472.809 1072.36 470.244 1083.89 L 433.168 1083.98 C 447.522 1066.78 462.454 1058.63 483.283 1051.34 z"/>
<path transform="translate(0,0)" fill="rgb(89,51,140)" d="M 1132.73 1051.86 C 1141.66 1079.28 1150 1083.58 1169.31 1103.25 C 1164.1 1106.48 1151.53 1105.38 1145.85 1104.03 C 1120.89 1098.11 1108.22 1077.39 1099.44 1054.9 C 1113.36 1055.13 1120.19 1058.99 1132.73 1051.86 z"/>
<path transform="translate(0,0)" fill="rgb(89,51,140)" d="M 851.457 1417.65 C 864.191 1424.2 875.373 1428.69 888.599 1433.93 C 883.281 1437.39 877.063 1440.96 871.582 1444.28 C 862.423 1449.32 855.272 1453.05 845.708 1457.46 C 846.564 1443.03 849.615 1431.8 851.457 1417.65 z"/>
<path transform="translate(0,0)" fill="rgb(188,36,92)" d="M 1157.23 984.61 C 1158.85 995.515 1163.35 1008.7 1167.85 1018.76 C 1162.9 1023.18 1158.01 1027.52 1153.36 1032.26 C 1150.11 1015.25 1152.33 1000.9 1157.23 984.61 z"/>
<path transform="translate(0,0)" fill="rgb(231,201,103)" d="M 1046.3 316.952 C 1042.42 326.38 1035.26 338.309 1030.27 347.689 C 1025.69 356.277 1021.2 365.628 1016.58 374.008 C 1014.17 371.664 1018.39 370.484 1016.53 365.704 C 1012.85 365.915 1012.24 366.776 1009.33 369.009 C 1018.24 353.624 1035.2 331.019 1046.3 316.952 z"/>
<path transform="translate(0,0)" fill="rgb(231,201,103)" d="M 793.756 346.087 C 789.036 364.88 786.247 378.706 783.458 397.869 C 781.535 394.428 782.021 395.815 782.828 391.091 C 780.521 389.216 781.855 389.745 778.561 389.85 C 777.471 392.024 777.515 392.403 777.037 394.818 L 774.884 396.037 C 779.098 380.816 786.541 360.063 793.756 346.087 z"/>
</svg>